<?xml version="1.0" encoding="utf-8"?>
<!-- Generator: Adobe Illustrator 23.0.5, SVG Export Plug-In . SVG Version: 6.00 Build 0)  -->
<svg version="1.1" id="Layer_1" xmlns="http://www.w3.org/2000/svg" xmlns:xlink="http://www.w3.org/1999/xlink" x="0px" y="0px"
	 viewBox="0 0 1260.6 834" style="enable-background:new 0 0 1260.6 834;" xml:space="preserve">
<style type="text/css">
	.st0{fill:#FFFFFF;}
	.st1{fill:#5E5E5E;}
	.st2{fill:#AC1F25;}
	.st3{enable-background:new    ;}
</style>
<rect x="24.6" y="13.8" class="st0" width="1220.5" height="807.1"/>
<polygon class="st1" points="532.7,260.5 410.6,421.9 216.3,454.5 317.3,321.1 "/>
<polygon class="st1" points="532.7,288.3 524.2,299.9 597.4,458.8 597.6,472.1 615.7,469.6 "/>
<polygon class="st1" points="431.3,426 431.3,610.2 411.2,610.2 411.2,556.1 229.9,545.5 229.9,468.3 421.5,439.4 "/>
<polygon class="st1" points="127,610.2 127,635.7 1035.8,619.8 1035.8,610.2 "/>
<path class="st1" d="M217.8,386.5c-13,0.3-26.2,8-31,20.8c-5.1-7.7-10.9-12.7-17-15.1c-7.1-2.8-15.1-2-21.6,2
	c-11.2,6.8-17.5,22.1-11.7,37c-3.2,0-6.4,0.3-9.5,1.1v6c4.5-1.2,9.1-1.5,13.8-1l5.8,0.6l-2.8-5c-7.8-13.7-2.1-27.8,7.6-33.6
	c4.9-3.1,11-3.7,16.4-1.5c5.9,2.3,12.2,7.9,17.6,18.5l4.6,9l1-10.1c1.4-13.8,14.2-22.5,27-22.8c6.3-0.3,12.5,1.9,17.3,6.1
	c4.7,4.3,8.1,11.1,8.5,21.4c-0.2,1.6,1,3.1,2.6,3.3c1.6,0.2,3.1-1,3.3-2.6c0-0.3,0-0.6,0-1c-0.4-11.5-4.4-20.1-10.4-25.5
	C233.4,388.9,225.7,386.2,217.8,386.5"/>
<path class="st1" d="M247.5,291.6c-2,0-4.1,0.2-6.1,0.5c-15.3,2.5-28.1,13-33.5,27.6c-6.4-7.7-16.9-10.5-26.2-7
	c-9.2,3.6-15.7,13.7-13.4,27.6c-5.9-1.3-12.1-0.6-17.6,2.1c-6.2,3.2-11,8.7-13.3,15.2c-4.8,13-0.5,30,16.7,39.4
	c1.3,1,3.2,0.8,4.2-0.5s0.8-3.2-0.5-4.2c-0.3-0.2-0.6-0.4-0.9-0.5c-15-8.2-17.9-21.8-14-32.2c1.8-5.2,5.6-9.5,10.4-12
	c4.8-2.4,10.8-3,17.9-0.5l5.5,2l-1.7-5.6c-4.3-14.4,1.3-22.5,8.8-25.4s17.3-0.5,22.4,9.5l3.6,7.1l1.9-7.7c4-16.6,16.8-27,30.5-29.1
	s28.3,3.9,36.6,21.3c0.4,1,1.3,1.7,2.4,1.8c1.1,0.1,2.2-0.4,2.8-1.3c0.6-0.9,0.7-2.1,0.1-3.1C276.1,299.6,261.7,291.7,247.5,291.6"
	/>
<path class="st1" d="M644.2,332.9c-8.3-6.8-20.8-9.1-30.7-3.7c1-7.6,0.1-13.9-2.5-18.6c-3-5.6-8.4-9.4-14.6-10.4
	c-10.7-1.8-22.9,4.4-27.3,16.8c-2.1-1.8-10-6.7-13-7.7l3.3,7c3.5,1.7,6.6,4,9.1,6.8l3.3,3.5l1-4.7c2.5-12.7,13.7-18.5,22.9-16.9
	c4.8,0.7,8.9,3.7,11.1,7.9c2.5,4.6,3.4,11.5,1,21.1l-2,8.1l6.1-5.8c8.3-7.9,21.1-6.4,29.2,0.3c4.1,3.2,6.8,7.9,7.5,13.1
	c0.6,5.2-1,11.3-6.2,18c-0.6,0.7-0.7,1.6-0.4,2.4c0.5,1.3,1.9,1.9,3.2,1.4c0.4-0.2,0.7-0.4,1-0.8c5.9-7.4,8.1-14.9,7.3-21.6
	C652.6,342.8,649.3,336.9,644.2,332.9"/>
<polygon class="st0" points="404.1,272.7 404.1,349.7 383.4,377.8 383.4,265.3 "/>
<polygon class="st1" points="383.4,265.3 361,272.4 359.2,382.9 383.4,377.8 "/>
<polygon class="st1" points="127,560 127,566.3 411.2,576.5 411.2,571.6 "/>
<polygon class="st1" points="701,583.4 701,586.8 597.6,583.1 597.6,579.2 "/>
<polygon class="st1" points="536,325.5 524.2,299.9 508,321.8 507.8,428.4 535.5,434.4 "/>
<polygon class="st1" points="493.1,424.7 471.5,420.1 471.5,371.4 493.1,342 "/>
<polygon class="st1" points="549.5,354.8 549.5,437.5 568.5,441.5 568.5,396.1 "/>
<polygon class="st1" points="549.5,486.1 568.5,489 569.1,564.9 549.5,564 "/>
<polygon class="st1" points="507.9,479.8 535.5,484 535.5,610.2 507.9,610.2 "/>
<polygon class="st1" points="471.5,473.6 493.1,477.1 493.1,560.8 471.5,559.7 "/>
<polygon class="st1" points="842.4,512.4 781.8,384.3 775.9,392.8 829.7,505.4 829.6,514.1 "/>
<polygon class="st1" points="781.8,366.4 595.5,397.7 626.2,464.8 615.7,469.6 597.6,472.1 597.6,489.5 701.9,479.9 "/>
<polygon class="st1" points="713,482.1 707.3,490.2 597.6,499.5 597.6,566.8 701,572.7 701,610.2 713,610.2 "/>
<polygon class="st1" points="829.7,588.7 829.7,591.4 902.5,594 902.5,591.6 "/>
<polygon class="st1" points="785,411.8 775.9,392.8 765.5,409.1 765.5,484 784.8,488.2 "/>
<polygon class="st1" points="755.4,481.4 740.4,478.2 740.4,444.5 755.5,422.4 "/>
<polygon class="st1" points="794.5,431.9 794.5,490.3 807.7,493.1 807.3,458.6 "/>
<polygon class="st0" points="703.6,359.6 703.6,416.5 688.3,437.3 688.3,354.2 "/>
<polygon class="st1" points="688.3,354.2 671.8,359.4 670.4,441.1 688.3,437.3 "/>
<polygon class="st1" points="765.6,519.6 784.8,522.5 784.8,610.2 765.6,610.7 "/>
<polygon class="st1" points="794.5,524 807.7,526 808.1,578.7 794.5,578 "/>
<polygon class="st1" points="740.4,515.3 755.4,517.8 755.4,575.8 740.4,575.1 "/>
<path class="st1" d="M1007.8,540.5l-4.6,3.1l-43.7-91.3l-4.2,6l37.9,79.4v52.7l42.3,2.4c0,0,6.8-9.4-0.3-19.3
	c20.7-2.6,22.5-34.2-0.6-38.8c21.2-17-2.5-42.8-19.3-31.6c8-24.3-22.7-42-37.8-25.6L1007.8,540.5z"/>
<polygon class="st1" points="959.5,439.6 827.3,461.9 849.8,509 842.4,512.4 829.6,514.1 829.6,526.4 903.2,519.7 "/>
<polygon class="st1" points="911,521.2 907,526.9 829.6,533.5 829.6,580.9 902.5,585.1 902.5,611.5 911,611.5 "/>
<polygon class="st1" points="993.3,596.3 993.3,598.2 1035.7,599.8 1035.7,598.1 "/>
<polygon class="st1" points="961.7,471.7 955.3,458.2 948,469.8 948,522.5 961.6,525.5 "/>
<polygon class="st1" points="940.9,520.7 930.3,518.5 930.3,494.7 941,479.1 "/>
<polygon class="st1" points="968.5,485.8 968.4,527 977.7,529 977.5,504.6 "/>
<polygon class="st0" points="904.4,434.8 904.4,475 893.6,489.6 893.6,431 "/>
<polygon class="st1" points="893.6,431 881.9,434.7 881,492.3 893.6,489.6 "/>
<polygon class="st1" points="948.1,547.6 961.6,549.7 961.6,611.5 948.1,611.9 "/>
<polygon class="st1" points="968.4,550.8 977.7,552.2 978,589.3 968.4,588.8 "/>
<polygon class="st1" points="930.3,544.6 940.9,546.4 940.9,587.3 930.3,586.8 "/>
<path class="st1" d="M865.3,431.1c-2.8-2.8-6.4-4.5-10.3-4.9c4.3-8,2.5-15.5-2.4-19.5c-4.9-4.1-11.9-4.6-17.4-1.2
	c-0.2-10-5.8-19-14.5-23.8c-1.2-0.6-2.4-1.1-3.6-1.6c-8.1-2.8-17.8-1.3-25.9,6l1.7,3.6c8.5-8.3,18.3-8.7,26.1-4.7
	c7.9,4.1,13.5,13.1,12.4,24l-0.5,5.1l3.7-3.5c5.2-4.9,11.6-4.4,15.6-1s5.7,9.4,0,17.2l-2.2,3l3.8-0.1c4-0.2,7.9,1.2,10.8,4
	c2.4,2.6,3.8,5.9,3.8,9.5c0.2,7.1-4.4,14.8-15.2,16.6c-1,0.1-1.8,1-1.8,2c0.1,1,1,1.8,2,1.8c0.1,0,0.1,0,0.2,0h0.2
	c12.4-2.1,18.6-11.5,18.4-20.4C870,438.6,868.3,434.3,865.3,431.1"/>
<rect x="809.2" y="259.8" class="st2" width="451.4" height="299.7"/>
<g>
	<g class="st3">
		<path class="st0" d="M914.1,398.1h36.1v10.6H902v-6.9c0-10.2,7.5-15.5,19.5-24.1c9.5-6.8,17.7-11.8,17.7-17.5
			c0-5.9-6.5-10.1-13.2-10.1c-6.9,0-12.4,2.9-16.7,7.6l-7-7c5.6-6.9,13.9-11.2,23.7-11.2c13.1,0,24.4,8.8,24.4,20.4
			c0,12.2-12.6,19.3-22.7,26.6C920.4,391.7,915.4,395.5,914.1,398.1z"/>
	</g>
	<g class="st3">
		<path class="st0" d="M964.1,341.3h39.9v10.6h-29.6l-2,23.7c0.9-0.1,1.9-0.1,3-0.1c6.8,0,13.4,1.3,18.8,4.2
			c8.8,4.6,14.7,14.1,14.7,25c0,20.5-21,30.7-39.1,30.7c-4,0-7.8-0.4-11.4-1.3l2.6-10.1c2.9,0.7,5.6,1.1,8.6,1.1
			c14.2,0,28-7.8,28-21.6c0-10.5-8-17.8-22.1-17.8c-1.1,0-2.4,0-3.3,0.1l-12.1,1L964.1,341.3z"/>
	</g>
	<g class="st3">
		<path class="st0" d="M1085.6,374.9c0,19.5-15.9,35.5-35.5,35.5s-35.5-15.9-35.5-35.5s15.9-35.5,35.5-35.5
			S1085.6,355.4,1085.6,374.9z M1074.4,374.9c0-13.6-10.9-24.9-24.3-24.9c-13.4,0-24.3,11.2-24.3,24.9c0,13.6,10.9,24.9,24.3,24.9
			C1063.5,399.8,1074.4,388.6,1074.4,374.9z"/>
	</g>
</g>
<g class="st3">
	<path class="st0" d="M1123.6,365.6c11.2,3.3,19.7,12.1,22.8,23.5l4.6,17.4l-11.2,3.2l-5-18.5c-2.7-10-11.5-16.4-21.5-16.4h-4.4
		v33.8h-11.8v-105h11.8v61.6l29.9-30.3l8.3,8.3L1123.6,365.6z"/>
</g>
<g>
	<g class="st3">
		<path class="st0" d="M880.2,467.6c-4.2,0-7.1,2.5-7.1,6.1c0,8.8,20.9,8.4,20.9,21.9c0,5.9-4.2,11.6-13.8,11.6c-5,0-9.5-2-12.8-5.2
			l3.2-3.4c2.5,2.3,5.9,3.7,9.6,3.7c6.1,0,8.6-2.9,8.6-6.6c0-9.5-20.9-8.8-20.9-21.9c0-6.6,5.6-11.1,12.3-11.1
			c4.6,0,8.7,1.9,11.6,5.1l-2.9,3.2C886.6,468.8,883.5,467.6,880.2,467.6z"/>
	</g>
	<g class="st3">
		<path class="st0" d="M922.2,520.2h-4.9v-14.7c-1.3,0.6-3,0.9-4.7,0.9c-7.9,0-14-6.8-14-14.9c0-6.8,4.9-15.6,16.8-15.6
			c2.5,0,4.8,0.4,6.9,1.3V520.2z M915.3,480.5c-8,0-11.8,5.8-11.8,11c0,5.8,4.2,10.2,9,10.2c1.7,0,3.4-0.4,4.7-1.3v-19.8
			C916.6,480.6,916,480.5,915.3,480.5z"/>
	</g>
	<g class="st3">
		<path class="st0" d="M945.7,476.7h4.9V501c1.4-0.6,2.6-1.4,3.8-2.3l2.5,3.2c-3.4,3.3-8,5.3-13.1,5.3c-9.2,0-14.5-6.7-14.5-14
			v-16.5h4.9v16.7c0,4.8,3.5,9.1,9.5,9.1c0.7,0,1.3-0.1,2-0.1V476.7z"/>
		<path class="st0" d="M972.2,475.9c5,0,9,4,9,9V501c1.3-0.6,2.5-1.4,3.7-2.3l2.5,3.2c-3.4,3.2-7.9,5.3-13.1,5.3
			c-7.8,0-14.1-5.7-15.4-12.8l17.3-7.3v-2c0-2.4-1.8-4.4-4.1-4.4c-2.1,0-3.9,0.8-5.3,2.1l-3.2-3.1
			C965.8,477.4,968.8,475.9,972.2,475.9z M976.3,502.3v-10.9l-11.4,5.1c1.8,3.5,5.3,5.9,9.5,5.9
			C975.1,502.5,975.7,502.4,976.3,502.3z"/>
	</g>
	<g class="st3">
		<path class="st0" d="M1002.1,481c-3.2,0-5.9,2.9-5.9,7.3v18.1h-4.9v-30.1l3.6,3.6c1.7-2.2,4.3-3.6,7.3-3.6c3.2,0,6.1,1.5,8,3.9
			l-3.2,3.2C1005.9,481.9,1004.1,481,1002.1,481z"/>
	</g>
	<g class="st3">
		<path class="st0" d="M1026.6,507.1c-8.6,0-15.6-7-15.6-15.6c0-7.9,4.9-15.6,13.8-15.6c6.6,0,13.6,4.6,13.6,15.6
			c0,0.6,0,1.1-0.1,1.7H1016c0.8,5.3,5.4,9.2,10.6,9.2c3,0,5.9-1.1,8-3l2.9,3.2C1034.6,505.4,1030.9,507.1,1026.6,507.1z
			 M1033.4,489.1c-0.6-5.8-4.6-8.6-8.5-8.6c-5.1,0-8,4.2-8.7,8.6H1033.4z"/>
	</g>
	<g class="st3">
		<path class="st0" d="M1062.6,480.8h14.3v4.9h-14.3v20.7h-5.2v-43h20.4v4.9h-15.2V480.8z"/>
	</g>
	<g class="st3">
		<path class="st0" d="M1096.3,507.1c-8.6,0-15.6-7-15.6-15.6c0-7.9,4.9-15.6,13.8-15.6c6.6,0,13.6,4.6,13.6,15.6
			c0,0.6,0,1.1-0.1,1.7h-22.3c0.8,5.3,5.4,9.2,10.6,9.2c3,0,5.9-1.1,8-3l2.9,3.2C1104.3,505.4,1100.6,507.1,1096.3,507.1z
			 M1103,489.1c-0.6-5.8-4.6-8.6-8.5-8.6c-5.1,0-8,4.2-8.7,8.6H1103z"/>
		<path class="st0" d="M1129.1,507.1c-8.6,0-15.6-7-15.6-15.6c0-7.9,4.9-15.6,13.8-15.6c6.6,0,13.6,4.6,13.6,15.6
			c0,0.6,0,1.1-0.1,1.7h-22.3c0.8,5.3,5.4,9.2,10.6,9.2c3,0,5.9-1.1,8-3l2.9,3.2C1137.1,505.4,1133.4,507.1,1129.1,507.1z
			 M1135.8,489.1c-0.6-5.8-4.6-8.6-8.5-8.6c-5.1,0-8,4.2-8.7,8.6H1135.8z"/>
	</g>
	<g class="st3">
		<path class="st0" d="M1152.8,470.9v5.8h4.9v4.7h-4.9v16.4c0,2.4,0.9,4.6,2.4,6.2l-3.3,3.4c-2.5-2.5-4-5.9-4-9.6v-16.4h-4.2
			L1152.8,470.9z"/>
	</g>
</g>
</svg>
