<?xml version="1.0" encoding="utf-8"?>
<!-- Generator: Adobe Illustrator 23.0.5, SVG Export Plug-In . SVG Version: 6.00 Build 0)  -->
<svg version="1.1" id="Layer_1" xmlns="http://www.w3.org/2000/svg" xmlns:xlink="http://www.w3.org/1999/xlink" x="0px" y="0px"
	 viewBox="0 0 1260.6 834" style="enable-background:new 0 0 1260.6 834;" xml:space="preserve">
<style type="text/css">
	.st0{fill:#FFFFFF;}
	.st1{fill:#AC1F25;}
	.st2{enable-background:new    ;}
	.st3{fill:#5E5E5E;}
</style>
<rect x="19.5" y="11.9" class="st0" width="1221.6" height="807.8"/>
<rect x="630.3" y="260.2" class="st1" width="630.3" height="297.8"/>
<g class="st2">
	<path class="st0" d="M686.4,489c-2.7,0-5.4-0.5-7.8-1.4l-5.3,12.8l-4.7-2l17.8-42l17.8,42l-4.7,2l-5.3-12.8
		C691.9,488.5,689.3,489,686.4,489z M686.4,468.7l-6.1,14.6c1.9,0.7,3.9,1,6.1,1c2.1,0,4.2-0.4,6.1-1L686.4,468.7z"/>
	<path class="st0" d="M704,471.9l4.4-2l9,20.4l9-20.4l4.4,2l-13.3,29L704,471.9z"/>
	<path class="st0" d="M748.7,500.3c-8.4,0-15.2-6.9-15.2-15.2c0-7.7,4.8-15.2,13.5-15.2c6.5,0,13.3,4.5,13.3,15.2
		c0,0.6,0,1.1-0.1,1.7h-21.8c0.8,5.2,5.2,9,10.3,9c3,0,5.7-1.1,7.8-2.9l2.8,3.1C756.6,498.7,752.9,500.3,748.7,500.3z M755.3,482.7
		c-0.6-5.6-4.4-8.4-8.3-8.4c-5,0-7.8,4.1-8.5,8.4H755.3z"/>
	<path class="st0" d="M777.6,474.8c-3.1,0-5.8,2.8-5.8,7.1v17.7H767v-29.4l3.5,3.5c1.7-2.2,4.2-3.5,7.1-3.5c3.1,0,6,1.5,7.8,3.8
		l-3.1,3.1C781.2,475.7,779.5,474.8,777.6,474.8z"/>
	<path class="st0" d="M797,469.8c4.9,0,8.8,4,8.8,8.8v15.7c1.3-0.6,2.5-1.4,3.6-2.3l2.5,3.1c-3.3,3.1-7.7,5.2-12.8,5.2
		c-7.6,0-13.8-5.6-15-12.5l16.9-7.2v-2c0-2.3-1.8-4.3-4-4.3c-2,0-3.8,0.8-5.2,2.1l-3.1-3C790.7,471.3,793.7,469.8,797,469.8z
		 M801,495.6V485l-11.2,5c1.7,3.4,5.2,5.7,9.3,5.7C799.8,495.8,800.4,495.7,801,495.6z"/>
	<path class="st0" d="M840.8,505.8c0,5.5-6.7,8-13.4,8s-13.4-2.5-13.4-8c0-3.7,3.1-6.1,7.3-7.1c-0.9-0.4-3.5-1.5-3.5-3.6
		c0-1.2,0.9-2.3,1.9-2.7l3.3-1.2c-4.2-1.6-7.1-5.4-7.1-10.1c0-6.2,5.1-11.2,11.4-11.2c2.3,0,4.4,0.7,6.2,1.8l3.5-3.5l3.2,3.2
		l-3.4,3.4c1.2,1.9,1.9,4.1,1.9,6.4c0,4.9-3.1,9-7.6,10.6l-8,2.8c-0.3,0.1-0.6,0.4-0.6,0.7c0,0.7,2.1,2,6.5,2.5
		C835.3,498.5,840.8,500.7,840.8,505.8z M836.2,505.8c0-2.2-4.6-3.7-8.8-3.7s-8.8,1.5-8.8,3.7s4.6,3.7,8.8,3.7
		S836.2,507.9,836.2,505.8z M820.6,481.1c0,3.7,3,6.7,6.8,6.7c3.8,0,6.8-3,6.8-6.7c0-3.7-3-6.7-6.8-6.7
		C823.6,474.3,820.6,477.4,820.6,481.1z"/>
	<path class="st0" d="M860.1,500.3c-8.4,0-15.2-6.9-15.2-15.2c0-7.7,4.8-15.2,13.5-15.2c6.5,0,13.3,4.5,13.3,15.2
		c0,0.6,0,1.1-0.1,1.7h-21.8c0.8,5.2,5.2,9,10.3,9c3,0,5.7-1.1,7.8-2.9l2.8,3.1C867.9,498.7,864.3,500.3,860.1,500.3z M866.7,482.7
		c-0.6-5.6-4.4-8.4-8.3-8.4c-5,0-7.8,4.1-8.5,8.4H866.7z"/>
	<path class="st0" d="M896.3,457.6v42h-5.1v-42H896.3z"/>
	<path class="st0" d="M922.6,479.2c2.8,1.7,5.1,4.4,5.9,7.8l3.1,11.9l-4.8,1.3l-3.1-11.7c-1.2-4.3-4.9-7.1-9-7.1h-5.1v18.3h-5.1
		v-40.9c3.4-0.9,6.7-1.5,12-1.5c8.2,0,12.7,6.1,12.7,12.1C929.3,473.6,926.6,477.4,922.6,479.2z M909.6,476.5h7.7
		c3.8,0,6.9-3.3,6.9-7.3c0-4-3.1-7.4-7.3-7.4c-3.6,0-5.3,0.1-7.3,0.4V476.5z"/>
	<path class="st0" d="M955.8,479.2c2.8,1.7,5.1,4.4,5.9,7.8l3.1,11.9l-4.8,1.3l-3.1-11.7c-1.2-4.3-4.9-7.1-9-7.1h-5.1v18.3h-5.1
		v-40.9c3.4-0.9,6.7-1.5,12-1.5c8.2,0,12.7,6.1,12.7,12.1C962.5,473.6,959.8,477.4,955.8,479.2z M942.8,476.5h7.7
		c3.8,0,6.9-3.3,6.9-7.3c0-4-3.1-7.4-7.3-7.4c-3.6,0-5.3,0.1-7.3,0.4V476.5z"/>
</g>
<path class="st3" d="M350.7,379c0,8.5,4.2,16.7,11.8,23c5.4,4.4,11.7,7.5,18.4,9.1V347c-6.7,1.6-13,4.7-18.4,9.1
	c-7.6,6.3-11.8,14.5-11.8,23"/>
<path class="st3" d="M425.2,449.2c-5.4-4.4-11.7-7.5-18.4-9.1v63c7.8-2,14.7-4.8,18.4-7.9c7.6-6.3,11.8-14.5,11.8-23
	S432.8,455.6,425.2,449.2"/>
<path class="st3" d="M374.3,282.1c-79.3,0-143.5,64.3-143.5,143.5S295,569.2,374.3,569.2s143.5-64.3,143.5-143.5l0,0
	C517.8,346.4,453.5,282.1,374.3,282.1 M422.2,515.1c-8.5,7.1-21.9,12-35,14.5v23.5h-25.9v-21.6c-15.5-0.9-30.3-6.7-42.3-16.4
	l16.5-19.9c7.4,5.9,16.4,9.5,25.8,10.4v-68c-12.8-2-24.9-7.4-35-15.6c-13.6-11.3-21.1-26.5-21.1-42.9s7.5-31.6,21.1-42.9
	c10.1-8.2,22.2-13.6,35-15.6v-22.5h25.9v22.3c15.3,2,32.2,7.3,42.4,15.7L413,356c-4.8-4-15.2-7.6-25.8-9.5v67.1
	c12.8,2,24.9,7.4,35,15.6c13.6,11.3,21.1,26.5,21.1,42.9S435.9,503.8,422.2,515.1"/>
<path class="st3" d="M574,449.2l-62.1,46.9l21.7,9.2c-44.1,88-151.1,123.6-239.1,79.5c-37.9-19-67.7-50.8-84.3-89.8
	c-3.2-7.6-12-11.2-19.7-8s-11.2,12-8,19.7l0,0c44.8,105.9,167,155.3,272.9,110.5c46.1-19.5,83.7-55.1,105.7-100.1l22.3,9.4
	L574,449.2z"/>
<path class="st3" d="M215,346c44.1-88,151.1-123.6,239.1-79.5c37.9,19,67.7,50.8,84.3,89.8c3.2,7.6,12,11.2,19.7,8s11.2-12,8-19.7
	l0,0C521.3,238.7,399.2,189.2,293.3,234c-46.2,19.6-83.8,55.1-105.9,100.2l-22.4-9.4l9.6,77.2l62.1-46.9L215,346z"/>
<g class="st2">
	<path class="st0" d="M667.5,401.4v-43.8c0-5-1.8-9.6-5-12.9l7-7.1c5.1,5.1,8.3,12.2,8.3,19.9v43.8H667.5z"/>
	<path class="st0" d="M717.1,349.6c15.6,0,27.4,11.9,27.4,26.6c0,14.8-12.2,26.8-27.4,26.8c-8.9,0-27.7-6.4-27.7-32.4
		c0-34.2,20.6-51.3,40-55l2.5,9.3c-11,1.8-25.2,10.1-30.3,29.6C705.9,351.5,711.2,349.6,717.1,349.6z M717.1,393.3
		c9.4,0,17.2-7.7,17.2-17.2c0-9.3-7.7-17.1-17.2-17.1c-5.4,0-17.2,2.8-17.2,16.8C699.9,385.2,707.6,393.3,717.1,393.3z"/>
	<path class="st0" d="M785,329.4c0,9.4-7.7,17.2-17.2,17.2c-9.4,0-17.2-7.7-17.2-17.2c0-9.4,7.7-17.2,17.2-17.2
		c2.5,0,4.9,0.5,7.1,1.6c5.6-5,13.1-8,21.4-8c8.9,0,17.1,3.5,23,9.4l3.7-4.6l7,5.6L759.7,403l-7-5.6l62.4-77.1
		c-5.5-4.2-12.2-6.7-19.4-6.7c-5.6,0-11,1.4-15.5,4.1C783.2,320.8,785,324.8,785,329.4z M758.9,329.4c0,5.1,3.9,9.7,8.9,9.7
		c5,0,8.9-4.6,8.9-9.7s-3.9-9.7-8.9-9.7C762.9,319.7,758.9,324.3,758.9,329.4z M830.3,384.2c0,9.4-7.7,17.2-17.2,17.2
		c-9.4,0-17.2-7.7-17.2-17.2s7.7-17.2,17.2-17.2C822.6,367.1,830.3,374.8,830.3,384.2z M804.2,384.2c0,5.1,3.9,9.7,8.9,9.7
		c5,0,8.9-4.6,8.9-9.7s-3.9-9.7-8.9-9.7C808.1,374.5,804.2,379.1,804.2,384.2z"/>
	<path class="st0" d="M863.4,365.8h38.6v9.7h-38.6V365.8z"/>
	<path class="st0" d="M947,391.7H980v9.7H936v-6.3c0-9.3,6.8-14.2,17.8-22c8.7-6.2,16.1-10.8,16.1-16c0-5.4-5.9-9.2-12.1-9.2
		c-6.3,0-11.3,2.6-15.2,7l-6.4-6.4c5.1-6.3,12.7-10.2,21.6-10.2c11.9,0,22.3,8,22.3,18.6c0,11.2-11.5,17.6-20.7,24.3
		C952.8,386,948.2,389.4,947,391.7z"/>
	<path class="st0" d="M1052.9,370.6c0,17.8-14.6,32.4-32.4,32.4c-17.8,0-32.4-14.6-32.4-32.4s14.6-32.4,32.4-32.4
		C1038.3,338.2,1052.9,352.8,1052.9,370.6z M1042.7,370.6c0-12.5-10-22.7-22.2-22.7c-12.2,0-22.2,10.2-22.2,22.7s10,22.7,22.2,22.7
		C1032.7,393.3,1042.7,383.1,1042.7,370.6z"/>
	<path class="st0" d="M1093.4,329.4c0,9.4-7.7,17.2-17.2,17.2c-9.4,0-17.2-7.7-17.2-17.2c0-9.4,7.7-17.2,17.2-17.2
		c2.5,0,4.9,0.5,7.1,1.6c5.6-5,13.1-8,21.4-8c8.9,0,17.1,3.5,23,9.4l3.7-4.6l7,5.6l-70.2,86.7l-7-5.6l62.4-77.1
		c-5.5-4.2-12.2-6.7-19.4-6.7c-5.6,0-11,1.4-15.5,4.1C1091.6,320.8,1093.4,324.8,1093.4,329.4z M1067.3,329.4c0,5.1,3.9,9.7,8.9,9.7
		c5,0,8.9-4.6,8.9-9.7s-3.9-9.7-8.9-9.7C1071.3,319.7,1067.3,324.3,1067.3,329.4z M1138.7,384.2c0,9.4-7.7,17.2-17.2,17.2
		s-17.2-7.7-17.2-17.2s7.7-17.2,17.2-17.2S1138.7,374.8,1138.7,384.2z M1112.6,384.2c0,5.1,3.9,9.7,8.9,9.7s8.9-4.6,8.9-9.7
		s-3.9-9.7-8.9-9.7S1112.6,379.1,1112.6,384.2z"/>
</g>
</svg>
