<svg id="Layer_1" data-name="Layer 1" xmlns="http://www.w3.org/2000/svg" xmlns:xlink="http://www.w3.org/1999/xlink" viewBox="0 0 1920 226.53"><defs><style>.cls-1{fill:none;}.cls-2{opacity:0.3;}.cls-3{clip-path:url(#clip-path);}.cls-4{opacity:0.4;}.cls-5{clip-path:url(#clip-path-2);}.cls-6{fill:#fff;}.cls-7{clip-path:url(#clip-path-3);}</style><clipPath id="clip-path"><rect class="cls-1" width="1920" height="226.53"/></clipPath><clipPath id="clip-path-2"><rect class="cls-1" width="600.3" height="225.57"/></clipPath><clipPath id="clip-path-3"><rect class="cls-1" x="1319.7" y="0.96" width="600.3" height="225.57"/></clipPath></defs><title>bottom_bg</title><g class="cls-2"><g class="cls-3"><g class="cls-4"><g class="cls-5"><path class="cls-6" d="M213.17,0c-1.67,1.34-3.66,2.42-4.94,4.06a9.51,9.51,0,0,0,1.6,13.5,10.48,10.48,0,0,0,14.61-2.2c3-3.93,1.89-10.29-2.33-13.55-.7-.54-1.3-1.2-2-1.81Z"/><path class="cls-6" d="M92.43,0c-.83.67-1.65,1.37-2.51,2a9.46,9.46,0,0,0-3.51,10.59,9.78,9.78,0,0,0,9.46,7.09,9.93,9.93,0,0,0,9.19-6.46c1.65-4.75.1-8.86-4.7-12.44C100,.54,99.73.26,99.42,0Z"/><path class="cls-6" d="M63.5,0c-2.38,1.64-4.6,3.24-6.19,5.93-2.49,4.21,1.33,12.09,5.84,13.2,4.29,1.06,9-.25,11.41-3.61,2-2.73,2.12-8.26-.13-11.89-.91-1.46-2.61-2.43-4-3.63Z"/><path class="cls-6" d="M125.86,0c-2.59,2-5.16,3.9-6.15,7.48-1.72,6.23,3.61,11.72,8.59,12s8.79-2.08,10.16-6.18a10.12,10.12,0,0,0-4.12-12A13.09,13.09,0,0,1,132.85,0Z"/><path class="cls-6" d="M181.74,0c-2.48,1.55-4.8,3.19-6,6.06a9.67,9.67,0,0,0,4.79,12.58c5.37,2.3,11,.13,13.07-5,1.93-4.89.65-9.14-3.64-12.18-.61-.43-1.13-1-1.7-1.45Z"/><path class="cls-6" d="M216.11,30.43c-6.24,0-10,3.78-9.92,9.91.05,5.31,4.54,9.44,10,9.58,5.93.15,10.05-5.25,9.92-9.92-.16-5.84-4.05-9.61-10-9.57"/><path class="cls-6" d="M226.14,70.39c.11-6.06-4.85-9.76-10.29-9.89-5.25-.13-9.64,4.62-9.66,10a9.7,9.7,0,0,0,9.91,9.72,9.84,9.84,0,0,0,10-9.88"/><path class="cls-6" d="M206.19,127.83a9.63,9.63,0,0,0,9.91,9.67,9.87,9.87,0,1,0-.06-19.74,9.9,9.9,0,0,0-9.85,10.07"/><path class="cls-6" d="M217.06,195.69a9.48,9.48,0,0,0,10.06-9.43c.12-5.75-4.07-10-10-10.11a9.72,9.72,0,0,0-9.9,9.43c-.11,5.91,3.84,10,9.87,10.11"/><path class="cls-6" d="M486.07,215c.36-5.93-4.2-9.76-11.37-9.61-4.2.09-8.7,5.31-8.4,10.19.26,4.33,4.3,9.66,10.3,9.45,5.79-.21,9.47-3.91,9.47-10"/><path class="cls-6" d="M486.07,185.81c.64-4.68-3.72-9.38-9.88-9.54a10.07,10.07,0,0,0-10,9.91c0,5,4.8,9.81,9.73,9.8a9.72,9.72,0,0,0,10.17-10.17"/><path class="cls-6" d="M476.57,167.13c5.51,0,9.51-4.14,9.51-9.81s-4-9.64-9.74-9.64-10.35,4.26-10.08,9.73c.26,5.19,3.33,9.78,10.31,9.72"/><path class="cls-6" d="M206.68,216c0,5.75,3.91,9.55,9.83,9.51,5.66,0,10.13-4.23,10.11-9.51a10.12,10.12,0,0,0-10.32-9.94,9.68,9.68,0,0,0-9.62,9.94"/><path class="cls-6" d="M216.62,147.68a9.73,9.73,0,1,0,0,19.45c6,0,10-3.87,10-9.69,0-5.63-4.23-9.77-10-9.76"/><path class="cls-6" d="M226.64,98c0-5.86-3.9-9.89-9.54-9.88-6,0-10.4,4.1-10.36,9.71,0,5.14,4.88,10,10,9.91A9.78,9.78,0,0,0,226.64,98"/><path class="cls-6" d="M.14,70.23C.13,75.3,4.9,80.3,10,80.13c6-.19,10-3.57,10-8.83,0-7.75-3.64-10.09-10.08-10.76C5.29,60.05.14,65.44.14,70.23"/><path class="cls-6" d="M.13,40.17c0,4.91,5.12,9.77,10.13,9.7a9.78,9.78,0,0,0,9.82-9.75c0-5.4-4.72-10.3-10-10-5.89.33-10.2,5.13-10,10.06"/><path class="cls-6" d="M46.54,41.59c-.13-7.44-3.8-10.85-11.74-10.93-3.36,0-7.8,5.84-7.71,10.2a9.74,9.74,0,0,0,10.08,9.53c5.27-.1,9.45-4,9.37-8.8"/><path class="cls-6" d="M.13,11.24c0,4.83,4.8,9.23,10,9.21a9.69,9.69,0,0,0,9.89-10c0-5.1-4.45-9.29-9.66-9.51C5,.74-.63,6.59.13,11.24"/><path class="cls-6" d="M.13,97.67c-.8,6.09,5.54,10,9.77,10,5.62,0,9.67-4.6,9.75-11,.05-4.4-4.87-8.86-9.8-8.81S-.68,92.36.13,97.67"/><path class="cls-6" d="M95.9,49.89c5,0,9.82-4.69,9.92-9.64A10.43,10.43,0,0,0,95.67,30c-4.9,0-9.7,4.92-9.7,9.89a9.9,9.9,0,0,0,9.93,10"/><path class="cls-6" d="M.13,186.13c-.47,4.28,5.19,9.87,10.14,9.71,5.44-.18,9.72-3.86,9.8-10,.06-5.14-4.82-9.74-10.07-9.63s-9.87,4.88-9.87,10"/><path class="cls-6" d="M166.28,41.41c-.11-7.14-3.68-10.6-10.86-10.55-4.43,0-8.7,5.08-8.65,10.22s4.73,9.38,10,9.31,9.53-4.1,9.47-9"/><path class="cls-6" d="M.14,215.4c0,4.91,5.05,9.67,10.15,9.6a9.73,9.73,0,1,0,0-19.45c-5.45,0-10.16,4.59-10.13,9.85"/><path class="cls-6" d="M.13,127.09c-1.1,4.73,4.86,9.81,10,9.63a9.43,9.43,0,0,0,9.43-9.84,9.7,9.7,0,0,0-9.66-9.64,9.49,9.49,0,0,0-9.8,9.85"/><path class="cls-6" d="M534.35,167.14c6.78.05,9.8-4.08,10-10a9.36,9.36,0,0,0-9.76-9.45c-5.75.15-9.69,4.36-9.65,10.14,0,4.15,3.88,10.21,9.38,9.32"/><path class="cls-6" d="M157.13,117.25a9.83,9.83,0,0,0-9.78,9.84,9.66,9.66,0,0,0,9.7,9.61c6,0,9.67-3.61,9.72-9.56,0-6.12-3.6-9.87-9.64-9.89"/><path class="cls-6" d="M66.37,30.43c-5.77,0-9.81,4.14-9.8,10,0,5.08,4.59,9.39,9.9,9.5s10-4.89,9.91-9.64c-.06-5.3-3.58-10-10-9.84"/><path class="cls-6" d="M185.91,167.13c5.77,0,9.75-3.86,9.8-9.57s-3.61-9.84-8.69-10c-7.34-.2-10.58,5.06-10.71,9.62a9.66,9.66,0,0,0,9.6,9.93"/><path class="cls-6" d="M296,157.36c-.56,5.4,4.45,9.91,9.29,9.8,5.84-.13,10.31-4.21,10-9.8-.27-5.25-3.49-9.78-9.77-9.72-5.41.05-9.74,3.77-9.55,9.72"/><path class="cls-6" d="M120.37,127.07c0,6,3.58,9.63,9.49,9.63,5.35,0,10.5-4.83,10.31-9.68-.2-5.13-5.2-9.64-10.43-9.82-4.55-.16-9.94,4.77-9.37,9.87"/><path class="cls-6" d="M27.57,127.1c0,5.92,3.69,9.59,9.64,9.6a9.57,9.57,0,0,0,9.77-10c-.19-5.21-4.13-9.7-11.15-9.55-4,.09-8.27,5.14-8.26,9.94"/><path class="cls-6" d="M276.7,117.25c-5.52,0-9.68,4.4-9.65,10.14,0,6,4,9.21,9.61,9.28a9.53,9.53,0,0,0,9.84-9.41,9.68,9.68,0,0,0-9.8-10"/><path class="cls-6" d="M37.53,20.46a9.86,9.86,0,0,0,9.92-9.71C47.47,5.49,42.68,1,37.19,1a10,10,0,0,0-9.58,9.82,9.69,9.69,0,0,0,9.92,9.63"/><path class="cls-6" d="M267.55,215.27a9.66,9.66,0,0,0,9.79,9.76c6.36.13,10-5.57,9.71-10.84-.17-3.51-4-8.86-9.86-8.67s-9.64,3.9-9.64,9.75"/><path class="cls-6" d="M174.78,40.21c0,5,4.91,9.74,9.84,9.65,5.39-.1,10.1-4.89,9.95-10.12-.14-5-4.77-9.68-9.59-9.72a10.5,10.5,0,0,0-10.2,10.19"/><path class="cls-6" d="M129.46,30.07c-5.14-.09-10.13,4.6-10,9.72a9.78,9.78,0,0,0,9.39,10c5.27.32,9.66-4.08,10.08-8.94a9.79,9.79,0,0,0-9.44-10.8"/><path class="cls-6" d="M157.57,167.13c5.56,0,9.23-3.94,9.2-9.84,0-6.18-3.58-9.65-9.8-9.61a9.59,9.59,0,0,0-9.52,9.77c.24,5,3.61,9.93,10.12,9.68"/><path class="cls-6" d="M276.75,147.66c-5.69-.33-9.81,5-9.72,9.71.1,5.43,4.33,9.94,9.76,9.71,6.36-.27,9.17-3.32,9.63-9.61.32-4.44-3.21-10.44-9.67-9.81"/><path class="cls-6" d="M351.37,97.93c0,5.1,3.69,9.93,9.36,9.75,6.06-.19,9.69-3.81,10-9.88.27-5-4.56-9.82-9.57-9.9-5.58-.1-9.79,4.21-9.82,10"/><path class="cls-6" d="M388.48,136.7a9.92,9.92,0,0,0,9.77-9.58,9.83,9.83,0,1,0-19.66,0c-.06,5.43,4.22,9.57,9.89,9.58"/><path class="cls-6" d="M570.39,186.1a9.75,9.75,0,0,0-9.72-10c-6.37-.06-9.48,5.18-9.73,9.8-.37,6.81,5.81,9.89,10.09,9.83a9.37,9.37,0,0,0,9.36-9.67"/><path class="cls-6" d="M505.21,167.13c6.35,0,9.68-4,9.76-9.75a9.61,9.61,0,0,0-9.86-9.7c-5.55,0-9.51,4.27-9.59,9.93-.06,4.37,4.28,10.08,9.69,9.52"/><path class="cls-6" d="M388.2,167.13a9.78,9.78,0,0,0,10-10.1c.06-5.08-4.78-9.36-10.65-9.42-4.78,0-8.74,4.42-8.77,9.87,0,5.71,3.79,9.64,9.39,9.65"/><path class="cls-6" d="M259.07,98a9.73,9.73,0,1,0-19.45-.16,10,10,0,0,0,9.81,9.93A9.91,9.91,0,0,0,259.07,98"/><path class="cls-6" d="M388.93,225c6.08,0,9.26-4.26,9.64-9.86.36-5.25-4.34-9.58-10-9.6-5.33,0-9.87,4.38-9.63,9.59.23,5,3.61,10.1,9.95,9.87"/><path class="cls-6" d="M120.37,97.85c-.39,6,4.67,9.72,9.64,9.81,5.12.09,9.85-4.9,9.8-10a10.17,10.17,0,0,0-9.67-9.8,9.59,9.59,0,0,0-9.77,9.95"/><path class="cls-6" d="M351.87,215.2c0,5.73,3.93,9.64,9.57,9.84,6.16.22,9.55-4.8,9.8-9.73s-4.75-10-9.71-9.9c-4.74.12-10.43,4.83-9.66,9.79"/><path class="cls-6" d="M66.2,205.55c-5.38-.41-9.74,4.74-9.69,8.75.08,6.59,4.11,10.56,9.45,10.68,6.07.14,10-3.81,10-9.86,0-5.77-3.85-9.58-9.76-9.57"/><path class="cls-6" d="M560.64,147.66a9.75,9.75,0,0,0-.29,19.49c6.55.14,9.76-4.18,10.07-9.75a9.73,9.73,0,0,0-9.78-9.74"/><path class="cls-6" d="M167.27,185.82c0-5.3-4.42-9.91-9.59-9.65-5.9.31-9.68,3.92-9.82,9.72s4.47,10,10.42,9.91c5.12-.09,9-4.39,9-10"/><path class="cls-6" d="M166.27,10.19C166.22,5,161.89.35,156.8.61c-6,.31-9.74,4-9.88,9.79-.17,6.7,5.6,10,10,10,5.36,0,9.41-4.51,9.36-10.18"/><path class="cls-6" d="M407.24,157.17c-.36,6.18,4.56,10.33,10.28,10a9.75,9.75,0,0,0-.87-19.47,9.41,9.41,0,0,0-9.41,9.48"/><path class="cls-6" d="M27.63,70.33a10,10,0,0,0,9.84,9.86c5.84.09,9.59-3.83,9.56-10a10.18,10.18,0,0,0-9.77-10c-4.37-.11-9.64,5.44-9.63,10.14"/><path class="cls-6" d="M.13,157.54a9.7,9.7,0,0,0,9.8,9.59,9.55,9.55,0,0,0,9.66-9.58,9.69,9.69,0,0,0-9.7-9.86,9.46,9.46,0,0,0-9.76,9.85"/><path class="cls-6" d="M27.58,157.14c-.07,6.26,4,10,9.78,10a9.73,9.73,0,1,0-.42-19.45,9.14,9.14,0,0,0-9.36,9.46"/><path class="cls-6" d="M167.27,215.2c0-5.83-3.87-9.65-9.73-9.65a9.8,9.8,0,0,0-9.72,9.66c0,5.67,4.66,9.93,10.89,9.87,4.6,0,8.58-4.63,8.56-9.88"/><path class="cls-6" d="M196.21,186.14c0-5.61-4.26-10.21-9.88-9.88-6,.34-9.2,3-9.51,10-.23,5.09,4.38,9.42,9.78,9.52a9.6,9.6,0,0,0,9.61-9.65"/><path class="cls-6" d="M335.82,167.13c6-.12,9.85-4,9.94-9.82a9.73,9.73,0,0,0-9.5-9.63c-5.73-.05-10.05,4-10.06,9.5a9.68,9.68,0,0,0,9.62,9.95"/><path class="cls-6" d="M351.37,157.76c-.17,5.89,4.45,9.38,9.4,9.28,6.57-.13,9.56-3.42,10-9.66.37-5.69-4.55-9.87-10.81-9.78-4.55.07-8.58,4.85-8.56,10.16"/><path class="cls-6" d="M437.18,157.52c0,5.73,3.86,9.43,9.5,9.66,6.64.26,9.6-5.32,9.74-9.69a9.5,9.5,0,0,0-9.5-9.8c-5.94,0-9.76,3.84-9.74,9.83"/><path class="cls-6" d="M184.64,80.19a10.18,10.18,0,0,0,9.93-9.83c0-4.89-4.58-9.73-9.41-9.9a10.63,10.63,0,0,0-10.58,9.9c-.2,4.63,5,9.74,10.06,9.83"/><path class="cls-6" d="M37.45,205.55c-5.67-.42-9.62,4.93-9.73,9.33A10.09,10.09,0,0,0,37.64,225a9.56,9.56,0,0,0,9.79-10.08c-.28-4.66-4.19-9.84-10-9.36"/><path class="cls-6" d="M76,186.13c.59-6.18-4.69-9.89-9.18-9.85-5.66.05-10.36,3.53-10.26,9.48.11,5.68,3.48,9.75,10.16,9.92,5.32.13,9.27-4.05,9.28-9.55"/><path class="cls-6" d="M335.58,137.2c6.51.05,9.69-4.86,9.7-9.85a10,10,0,0,0-9.94-9.6,10.29,10.29,0,0,0-9.83,9.69c0,5.59,4.29,9.8,10.07,9.76"/><path class="cls-6" d="M120.37,157.7a9.38,9.38,0,0,0,9.48,9.43,9.73,9.73,0,1,0,.1-19.45c-5.83,0-9.59,3.9-9.58,10"/><path class="cls-6" d="M105.93,215.43c.17-4.64-4.28-9.22-9.11-9.37a9.8,9.8,0,0,0-10.34,9.54c-.26,5.08,4,9.57,9.1,9.94a9.6,9.6,0,0,0,10.35-10.11"/><path class="cls-6" d="M277.25,195.71a9.91,9.91,0,0,0,9.75-9.88,10.1,10.1,0,0,0-9.85-9.62c-5.79.11-9.62,4-9.59,9.71a9.51,9.51,0,0,0,9.69,9.79"/><path class="cls-6" d="M276.69,88.18A9.5,9.5,0,0,0,267,98c0,4.65,4.11,9.89,9.59,9.72a10,10,0,0,0,9.88-9.87,9.41,9.41,0,0,0-9.81-9.68"/><path class="cls-6" d="M249.66,147.66c-6,.22-10.26,4.47-10,10.06.26,5.89,4.33,9.64,10.37,9.41a9.78,9.78,0,0,0,9.05-9.94c-.2-5.29-4.56-9.72-9.4-9.53"/><path class="cls-6" d="M76,70.41c0-5.35-4-10-8.78-9.81-7.21.33-9.71,2.7-10.45,9.64-.54,5.2,4.46,10.07,9.55,10A9.56,9.56,0,0,0,76,70.41"/><path class="cls-6" d="M195.71,127a9.7,9.7,0,0,0-9.7-9.76,9.9,9.9,0,0,0-9.73,9.65,9.7,9.7,0,0,0,10,9.81,9.36,9.36,0,0,0,9.45-9.7"/><path class="cls-6" d="M361,117.25a9.67,9.67,0,0,0-9.66,9.83c0,5.63,4,9.63,9.52,9.62a9.73,9.73,0,1,0,.14-19.45"/><path class="cls-6" d="M259.06,127.14a9.66,9.66,0,0,0-9.88-9.88c-5.55.08-9.73,4.51-9.62,10.53.08,4.43,4.4,9,9.86,8.91s9.67-4.11,9.64-9.56"/><path class="cls-6" d="M196.2,215.2a9.72,9.72,0,1,0-19.44.19,9.72,9.72,0,0,0,19.44-.19"/><path class="cls-6" d="M167,70c-.25-5.79-4.79-9.73-10.89-9.44-4.24.2-8.88,5.42-8.68,9.77.25,5.52,5,10.18,10.14,9.92A10,10,0,0,0,167,70"/><path class="cls-6" d="M106.4,185.81a9.72,9.72,0,0,0-9.63-9.67A10.2,10.2,0,0,0,87,186.38c0,5.43,5,9.31,10.2,9.63,4.87.3,9.24-4.78,9.23-10.2"/><path class="cls-6" d="M166.77,98.13c.22-6.61-4.28-9.92-9.54-10.13s-9.93,4.74-9.9,9.86,4.84,9.84,9.73,9.82a9.57,9.57,0,0,0,9.71-9.55"/><path class="cls-6" d="M407.25,185.92c0,5.82,3.89,9.76,9.62,9.78a9.72,9.72,0,0,0,9.78-9.54,9.93,9.93,0,0,0-10.18-10c-4,0-9.66,3.83-9.22,9.76"/><path class="cls-6" d="M105.41,70.19c.64-4.32-3.82-9.69-9.57-9.67a10.07,10.07,0,0,0-9.8,10c-.09,4.77,4.49,9.94,9.12,9.82,6.06-.17,10.65-4.29,10.25-10.11"/><path class="cls-6" d="M105.41,127.4c.72-5.29-5.24-9.79-9.84-9.67-5.57.14-9.55,5.6-9.55,9.42,0,6,4.11,10.06,10,10s9.44-3.85,9.44-9.8"/><path class="cls-6" d="M326.52,186.2c.34,5.51,5.07,9.93,10.36,9.67,5.06-.26,9.69-5.3,9.34-10.18-.38-5.37-5.12-9.81-10.18-9.55s-9.81,5.3-9.52,10.06"/><path class="cls-6" d="M130.39,176.13c-5.1,0-9.84,4.75-9.88,9.94a9.9,9.9,0,0,0,9.94,9.72,10.21,10.21,0,0,0,9.79-10c0-4.9-4.86-9.66-9.85-9.69"/><path class="cls-6" d="M495.63,215.2c-.34,5.17,3.78,9.46,9.4,9.77,5.92.34,9.34-3.61,9.92-9.73.45-4.81-4-9.2-9.37-9.69-4.76-.42-10.26,3.69-9.95,9.65"/><path class="cls-6" d="M75.47,126.88c0-5.72-3.79-9.6-9.42-9.63s-9.55,4-9.54,9.8c0,6.06,3.84,9.7,10.15,9.65,5.29,0,8.82-4,8.81-9.82"/><path class="cls-6" d="M27.58,97.71c-.28,6.19,4.81,9.68,9.62,10S47,102.88,47,97.77A10.28,10.28,0,0,0,37,87.94a9.61,9.61,0,0,0-9.46,9.77"/><path class="cls-6" d="M526,186.2a9.73,9.73,0,0,0,9.73,9.68,9.86,9.86,0,1,0-.36-19.71,9.68,9.68,0,0,0-9.37,10"/><path class="cls-6" d="M345.37,215.43c-.31-6.27-3.49-8.79-9.46-9.28-5.35-.43-10,4.51-10,9.91,0,5.23,4.57,9.49,10.1,9.44s9.38-4.2,9.34-10.07"/><path class="cls-6" d="M296,97.74a9.68,9.68,0,0,0,9.54,10c5.12,0,9.9-4.85,9.86-9.94a10,10,0,0,0-9.95-9.69A9.27,9.27,0,0,0,296,97.74"/><path class="cls-6" d="M240.12,186.23a9.83,9.83,0,0,0,9.74,9.65c4.91-.06,9.73-4.84,9.7-9.63a9.73,9.73,0,1,0-19.44,0"/><path class="cls-6" d="M351.87,186.12a9.76,9.76,0,0,0,9.8,9.76c4,0,9.83-3.92,9.65-10-.14-4.89-4.88-9.66-9.88-9.69a9.74,9.74,0,0,0-9.57,10"/><path class="cls-6" d="M305.83,205.55a10,10,0,0,0-9.86,9.36c-.3,5.63,4.65,10.14,10.48,10.06s9.16-4.31,9.2-9.48c.05-5.41-3.43-9.93-9.82-9.94"/><path class="cls-6" d="M505.18,195.57a9.71,9.71,0,1,0-9.62-9.37,9.09,9.09,0,0,0,9.62,9.37"/><path class="cls-6" d="M296,127.22a9.33,9.33,0,0,0,9.73,9.47c6.26,0,9.18-4.28,9.63-9.66.41-5-4.41-9.76-9.32-9.78-6,0-10,4-10,10"/><path class="cls-6" d="M335.17,88.31c-5.1-.7-9.67,4.53-9.67,9.56s4.75,9.77,10,9.86c5,.09,9.35-4.38,9.36-9.65,0-6.22-3.51-9.77-9.71-9.77"/><path class="cls-6" d="M120.87,215.5c0,5.67,3.81,9.49,9.43,9.5a9.54,9.54,0,0,0,9.53-9.89c0-5.7-4-9.6-9.72-9.56s-9.26,3.9-9.24,9.95"/><path class="cls-6" d="M437.68,186.05c-.43,5.84,5,9.83,9.49,9.68,6.59-.23,9.31-3.47,9.81-9.83.4-5.14-4.48-9.74-9.63-9.7a9.59,9.59,0,0,0-9.67,9.85"/><path class="cls-6" d="M56.51,157.7c0,5.54,4,9.43,9.7,9.43,5.52,0,9.49-4.16,9.48-10,0-5.38-4.26-9.34-9.76-9.54-5.05-.18-10,5.06-9.42,10.07"/><path class="cls-6" d="M87,157.74c0,5.41,4,9.29,9.47,9.42A9.89,9.89,0,0,0,106.06,157c-.06-4.7-4.34-9.53-9.57-9.34-5.9.2-9.56,3.93-9.54,10.09"/><path class="cls-6" d="M398.27,186.11c0-6.9-3.93-9.35-9.23-9.81a9.51,9.51,0,0,0-10.05,10c.37,5.14,3.18,9.46,10.05,9.31a9.05,9.05,0,0,0,9.23-9.48"/><path class="cls-6" d="M37.35,176.17c-5.2.18-9.79,5-9.57,9.94A10.05,10.05,0,0,0,38,195.87c4.86-.24,9.53-5.05,9.41-9.69-.14-5.49-4.88-10.19-10.09-10"/><path class="cls-6" d="M249.74,205.55c-5.18,0-9.68,4.46-9.62,9.43s3.6,10.22,9.51,10c5.58-.17,9.92-4.3,9.93-9.71a9.79,9.79,0,0,0-9.82-9.76"/><path class="cls-6" d="M378.81,97.93c-.47,5.95,5.33,9.66,9.59,9.74,5.15.09,9.89-4.84,9.85-10a9.94,9.94,0,0,0-9.6-9.53c-5.87-.07-9.83,3.86-9.84,9.75"/><path class="cls-6" d="M305.9,195.57c5.55,0,10.26-4.24,9.87-9.65s-3.8-9.39-9.78-9.7c-5.27-.27-10.16,4.91-9.91,10.39.21,4.7,4.76,9.41,9.82,9"/><path class="cls-6" d="M195.71,97.63a9.56,9.56,0,0,0-9.34-9.69,10.19,10.19,0,0,0-10.06,9.74c-.1,5.14,4.54,10,9.76,10,4,0,9.82-3.43,9.64-10"/><path class="cls-6" d="M105.91,97.78A9.24,9.24,0,0,0,96.3,88a9.59,9.59,0,0,0-9.45,10.07c.08,5.5,4.77,9.7,9.47,9.54,5.54-.18,10.21-4.38,9.59-9.83"/><path class="cls-6" d="M138.85,70.65c-.24-6.39-4.42-10.43-10.4-10.08-4.93.29-9.26,5.33-9,10.5.22,4.74,5,9,10,8.88,5.65-.16,9.63-4.08,9.43-9.3"/><path class="cls-6" d="M437.18,216.13c-.08,5.12,3.58,9.46,10.09,9.39,5.28-.06,9.06-4.24,9.08-10.34,0-5.3-4.79-8.88-9.66-9.07-5.44-.21-9.49,4.2-9.51,10"/><path class="cls-6" d="M407.25,215.44c0,5.39,4.28,9.5,9.9,9.55,4.36,0,9.42-4.23,9.43-9.42a9.74,9.74,0,0,0-9.78-10c-5.59,0-9.57,4.16-9.55,9.88"/><path class="cls-6" d="M75.47,97.72c.76-4.73-4.11-9.67-9.13-9.81a9.57,9.57,0,0,0-9.83,9.9c0,5.6,4.15,9.94,9.66,9.83,4.17-.08,10-4,9.3-9.92"/><path class="cls-6" d="M580.87,215.92c0,5.13,4.63,9.54,10.13,9.58,4.85,0,9.23-4.61,9.3-9.85.07-4.54-4.29-9.5-8.29-9.46-7,.06-11.1,3.61-11.14,9.73"/><path class="cls-6" d="M560.84,225a10,10,0,0,0,9.55-9.8c0-5.26-4.17-9.7-9-9.66-5.87.06-10.7,4.25-10.34,9.39.4,5.72,3.61,9.89,9.81,10.07"/><path class="cls-6" d="M525.49,216.06c0,5.47,4.09,9.39,9.72,9.4a9.85,9.85,0,0,0,9.68-9.31c.06-4.86-5-10.51-10.9-10.08-4.19.3-8.53,5.06-8.5,10"/></g></g><g class="cls-4"><g class="cls-7"><path class="cls-6" d="M1706.83,1c1.67,1.34,3.66,2.42,4.94,4.06a9.51,9.51,0,0,1-1.6,13.5,10.51,10.51,0,0,1-14.62-2.2c-3-3.93-1.88-10.3,2.34-13.55.7-.54,1.31-1.2,2-1.81Z"/><path class="cls-6" d="M1827.57,1c.83.67,1.64,1.37,2.51,2a9.45,9.45,0,0,1,3.51,10.58,9.79,9.79,0,0,1-9.46,7.1,9.94,9.94,0,0,1-9.19-6.46c-1.65-4.75-.09-8.86,4.7-12.44.33-.24.63-.52.94-.78Z"/><path class="cls-6" d="M1856.5,1c2.38,1.64,4.6,3.23,6.19,5.92,2.49,4.22-1.33,12.1-5.84,13.21-4.29,1.05-9-.25-11.41-3.62-2-2.73-2.12-8.25.13-11.88.91-1.46,2.61-2.43,4-3.63Z"/><path class="cls-6" d="M1794.14,1c2.59,2,5.16,3.9,6.15,7.48,1.72,6.23-3.61,11.72-8.59,12s-8.79-2.07-10.16-6.18a10.13,10.13,0,0,1,4.12-12,13.09,13.09,0,0,0,1.49-1.3Z"/><path class="cls-6" d="M1738.26,1c2.48,1.55,4.81,3.19,6,6.05a9.68,9.68,0,0,1-4.79,12.59c-5.37,2.3-11,.13-13.07-5-1.93-4.89-.65-9.15,3.64-12.19.6-.42,1.13-1,1.7-1.44Z"/><path class="cls-6" d="M1703.89,31.39c6.24,0,10,3.78,9.92,9.91,0,5.31-4.54,9.44-10,9.58-5.93.15-10-5.25-9.92-9.92.16-5.84,4.05-9.61,10-9.57"/><path class="cls-6" d="M1693.86,71.35c-.12-6.06,4.85-9.76,10.29-9.89,5.26-.13,9.63,4.61,9.66,10.05a9.7,9.7,0,0,1-9.91,9.72,9.84,9.84,0,0,1-10-9.88"/><path class="cls-6" d="M1713.81,128.79a9.63,9.63,0,0,1-9.91,9.67,9.87,9.87,0,1,1,.06-19.74,9.89,9.89,0,0,1,9.85,10.07"/><path class="cls-6" d="M1702.94,196.65a9.49,9.49,0,0,1-10.06-9.43c-.11-5.75,4.07-10,10-10.11a9.72,9.72,0,0,1,9.9,9.43c.11,5.91-3.84,10-9.87,10.11"/><path class="cls-6" d="M1433.93,216c-.36-5.93,4.2-9.76,11.37-9.61,4.2.09,8.7,5.31,8.4,10.19-.26,4.33-4.3,9.66-10.3,9.44-5.79-.2-9.47-3.9-9.47-10"/><path class="cls-6" d="M1433.92,186.77c-.63-4.68,3.73-9.38,9.89-9.55a10.09,10.09,0,0,1,10,9.91c0,5-4.8,9.82-9.73,9.81a9.73,9.73,0,0,1-10.18-10.17"/><path class="cls-6" d="M1443.43,168.09c-5.51,0-9.51-4.15-9.51-9.81s4-9.64,9.74-9.64,10.35,4.26,10.08,9.72c-.26,5.2-3.33,9.78-10.31,9.73"/><path class="cls-6" d="M1713.32,217c0,5.75-3.91,9.54-9.83,9.51-5.66,0-10.13-4.24-10.11-9.52a10.1,10.1,0,0,1,10.31-9.93,9.68,9.68,0,0,1,9.63,9.94"/><path class="cls-6" d="M1703.38,148.64a9.73,9.73,0,1,1,0,19.45c-6,0-10-3.87-10-9.69,0-5.64,4.24-9.77,10-9.76"/><path class="cls-6" d="M1693.36,98.93c0-5.86,3.91-9.89,9.54-9.88,6,0,10.4,4.1,10.36,9.71,0,5.14-4.88,9.95-10,9.91a9.79,9.79,0,0,1-9.93-9.74"/><path class="cls-6" d="M1919.86,71.18c0,5.08-4.76,10.08-9.88,9.91-6-.2-10-3.57-10-8.84,0-7.74,3.64-10.08,10.08-10.76,4.69-.48,9.83,4.9,9.84,9.69"/><path class="cls-6" d="M1919.86,41.13c0,4.91-5.11,9.77-10.12,9.7a9.78,9.78,0,0,1-9.82-9.75c0-5.4,4.72-10.3,10-10,5.88.32,10.21,5.13,10,10.06"/><path class="cls-6" d="M1873.46,42.55c.13-7.44,3.8-10.85,11.74-10.93,3.36,0,7.8,5.84,7.71,10.2a9.75,9.75,0,0,1-10.08,9.53c-5.27-.1-9.45-4-9.37-8.8"/><path class="cls-6" d="M1919.87,12.19c0,4.83-4.8,9.24-10,9.22a9.7,9.7,0,0,1-9.89-10c0-5.1,4.45-9.29,9.66-9.51,5.4-.22,11,5.63,10.28,10.27"/><path class="cls-6" d="M1919.87,98.63c.8,6.09-5.54,10-9.77,10.05-5.62,0-9.67-4.6-9.75-11,0-4.41,4.87-8.86,9.8-8.81s10.53,4.46,9.72,9.77"/><path class="cls-6" d="M1824.1,50.84c-5,0-9.82-4.68-9.91-9.63A10.41,10.41,0,0,1,1824.33,31c4.9,0,9.7,4.92,9.7,9.88a9.89,9.89,0,0,1-9.93,10"/><path class="cls-6" d="M1919.86,187.09c.49,4.28-5.18,9.87-10.13,9.7-5.44-.17-9.72-3.86-9.79-10-.07-5.14,4.81-9.74,10.06-9.63s9.87,4.88,9.86,10"/><path class="cls-6" d="M1753.72,42.36c.1-7.13,3.68-10.6,10.86-10.54,4.43,0,8.7,5.08,8.65,10.22s-4.73,9.38-10,9.3-9.53-4.09-9.47-9"/><path class="cls-6" d="M1919.86,216.36c0,4.91-5,9.66-10.15,9.6a9.73,9.73,0,1,1,0-19.45c5.46,0,10.17,4.59,10.14,9.85"/><path class="cls-6" d="M1919.87,128.05c1.1,4.73-4.86,9.81-10,9.63a9.43,9.43,0,0,1-9.43-9.84,9.69,9.69,0,0,1,9.66-9.64,9.49,9.49,0,0,1,9.8,9.85"/><path class="cls-6" d="M1385.65,168.1c-6.78.05-9.8-4.08-10-10-.21-5.31,4.39-9.57,9.76-9.44,5.75.14,9.69,4.36,9.64,10.14,0,4.15-3.87,10.21-9.37,9.32"/><path class="cls-6" d="M1762.87,118.2a9.84,9.84,0,0,1,9.78,9.85,9.67,9.67,0,0,1-9.7,9.61c-6,0-9.67-3.61-9.72-9.56,0-6.13,3.6-9.87,9.64-9.9"/><path class="cls-6" d="M1853.63,31.39c5.77,0,9.81,4.14,9.8,10,0,5.09-4.59,9.4-9.9,9.5s-10-4.89-9.91-9.64c.06-5.29,3.58-9.95,10-9.83"/><path class="cls-6" d="M1734.09,168.09c-5.77,0-9.75-3.87-9.8-9.57s3.61-9.84,8.68-10c7.35-.2,10.59,5.06,10.72,9.62a9.67,9.67,0,0,1-9.6,9.93"/><path class="cls-6" d="M1624,158.32c.56,5.4-4.45,9.91-9.29,9.8-5.84-.13-10.31-4.22-10-9.8.26-5.25,3.49-9.78,9.76-9.72,5.42.05,9.75,3.77,9.56,9.72"/><path class="cls-6" d="M1799.62,128c0,6-3.57,9.63-9.48,9.62-5.35,0-10.5-4.82-10.31-9.67.2-5.13,5.2-9.64,10.43-9.82,4.55-.16,9.94,4.76,9.36,9.87"/><path class="cls-6" d="M1892.43,128.05c0,5.93-3.69,9.6-9.64,9.61a9.57,9.57,0,0,1-9.77-10c.19-5.21,4.13-9.7,11.15-9.55,4,.09,8.27,5.13,8.26,9.93"/><path class="cls-6" d="M1643.3,118.2c5.52,0,9.68,4.41,9.65,10.15,0,6.05-4,9.21-9.61,9.28a9.53,9.53,0,0,1-9.84-9.42,9.69,9.69,0,0,1,9.8-10"/><path class="cls-6" d="M1882.47,21.41a9.86,9.86,0,0,1-9.92-9.71c0-5.25,4.77-9.8,10.26-9.74a10,10,0,0,1,9.58,9.83,9.67,9.67,0,0,1-9.92,9.62"/><path class="cls-6" d="M1652.45,216.23a9.67,9.67,0,0,1-9.79,9.76c-6.36.13-10-5.57-9.7-10.84.16-3.51,4-8.86,9.85-8.67s9.64,3.9,9.64,9.75"/><path class="cls-6" d="M1745.22,41.17c0,5-4.92,9.74-9.84,9.65-5.39-.1-10.1-4.89-10-10.12.14-5,4.78-9.68,9.6-9.72a10.5,10.5,0,0,1,10.2,10.19"/><path class="cls-6" d="M1790.54,31c5.14-.09,10.13,4.59,10,9.72a9.78,9.78,0,0,1-9.39,10c-5.27.32-9.66-4.08-10.08-8.94a9.79,9.79,0,0,1,9.44-10.8"/><path class="cls-6" d="M1762.44,168.09c-5.57,0-9.24-3.94-9.21-9.84,0-6.18,3.58-9.66,9.8-9.61a9.58,9.58,0,0,1,9.52,9.77c-.23,5-3.61,9.93-10.11,9.68"/><path class="cls-6" d="M1643.25,148.62c5.69-.34,9.81,5,9.72,9.7-.1,5.44-4.33,10-9.76,9.72-6.36-.27-9.17-3.32-9.63-9.61-.32-4.44,3.21-10.44,9.67-9.81"/><path class="cls-6" d="M1568.63,98.88c0,5.11-3.69,9.94-9.36,9.76-6.06-.19-9.69-3.81-10-9.88-.27-5,4.56-9.82,9.57-9.91,5.58-.09,9.79,4.21,9.82,10"/><path class="cls-6" d="M1531.52,137.66a9.92,9.92,0,0,1-9.77-9.58,9.83,9.83,0,1,1,19.66,0c.06,5.42-4.22,9.56-9.89,9.58"/><path class="cls-6" d="M1349.61,187.05a9.75,9.75,0,0,1,9.72-10c6.37-.06,9.48,5.19,9.73,9.81.37,6.81-5.81,9.89-10.09,9.83a9.38,9.38,0,0,1-9.36-9.68"/><path class="cls-6" d="M1414.79,168.09c-6.34,0-9.68-4-9.76-9.75a9.6,9.6,0,0,1,9.86-9.7c5.55,0,9.51,4.27,9.59,9.93.06,4.37-4.28,10.08-9.69,9.52"/><path class="cls-6" d="M1531.8,168.09a9.78,9.78,0,0,1-10-10.1c-.06-5.08,4.78-9.36,10.65-9.42,4.78,0,8.74,4.41,8.77,9.87,0,5.7-3.79,9.63-9.39,9.65"/><path class="cls-6" d="M1660.93,98.91a9.73,9.73,0,1,1,19.45-.16,10,10,0,0,1-9.81,9.94,9.91,9.91,0,0,1-9.64-9.78"/><path class="cls-6" d="M1531.07,226c-6.09,0-9.26-4.26-9.64-9.85-.36-5.25,4.34-9.58,10-9.6,5.33,0,9.87,4.37,9.63,9.59-.23,5-3.62,10.1-10,9.86"/><path class="cls-6" d="M1799.63,98.8c.38,6-4.67,9.73-9.64,9.82-5.12.09-9.85-4.9-9.8-10a10.19,10.19,0,0,1,9.67-9.81,9.6,9.6,0,0,1,9.77,10"/><path class="cls-6" d="M1568.13,216.16c0,5.72-3.93,9.64-9.57,9.84-6.16.22-9.55-4.81-9.8-9.73s4.75-10,9.71-9.9c4.74.11,10.43,4.83,9.66,9.79"/><path class="cls-6" d="M1853.8,206.51c5.38-.41,9.74,4.73,9.69,8.75-.08,6.59-4.11,10.55-9.45,10.67-6.07.14-10-3.8-10-9.85,0-5.77,3.85-9.58,9.76-9.57"/><path class="cls-6" d="M1359.36,148.62a9.75,9.75,0,0,1,.29,19.49c-6.55.14-9.76-4.18-10.07-9.76a9.72,9.72,0,0,1,9.78-9.73"/><path class="cls-6" d="M1752.73,186.78c0-5.31,4.42-9.91,9.59-9.65,5.9.3,9.68,3.92,9.82,9.72s-4.47,10-10.42,9.9c-5.12-.08-9-4.38-9-10"/><path class="cls-6" d="M1753.73,11.15c0-5.22,4.38-9.84,9.47-9.58,6,.31,9.74,3.95,9.88,9.79.17,6.7-5.6,10-10,10-5.35,0-9.41-4.5-9.35-10.17"/><path class="cls-6" d="M1512.76,158.13c.36,6.17-4.56,10.33-10.28,10a9.75,9.75,0,0,1,.87-19.47,9.41,9.41,0,0,1,9.41,9.48"/><path class="cls-6" d="M1892.37,71.29a10,10,0,0,1-9.84,9.86c-5.84.08-9.59-3.83-9.56-10a10.19,10.19,0,0,1,9.77-10c4.37-.1,9.64,5.45,9.63,10.15"/><path class="cls-6" d="M1919.87,158.5a9.71,9.71,0,0,1-9.8,9.59,9.56,9.56,0,0,1-9.66-9.58,9.71,9.71,0,0,1,9.7-9.87,9.46,9.46,0,0,1,9.76,9.86"/><path class="cls-6" d="M1892.43,158.1c0,6.25-4,10-9.79,10a9.73,9.73,0,1,1,.42-19.45,9.15,9.15,0,0,1,9.37,9.46"/><path class="cls-6" d="M1752.73,216.16c0-5.84,3.87-9.65,9.73-9.65a9.8,9.8,0,0,1,9.72,9.66c0,5.67-4.67,9.93-10.89,9.87-4.6,0-8.58-4.63-8.56-9.88"/><path class="cls-6" d="M1723.79,187.1c0-5.61,4.26-10.21,9.88-9.88,6,.34,9.2,3,9.51,10,.23,5.09-4.38,9.42-9.78,9.52a9.6,9.6,0,0,1-9.61-9.65"/><path class="cls-6" d="M1584.18,168.09c-6-.12-9.85-4-9.94-9.82a9.73,9.73,0,0,1,9.51-9.63c5.72,0,10,4,10,9.5a9.67,9.67,0,0,1-9.62,10"/><path class="cls-6" d="M1568.63,158.72c.17,5.88-4.46,9.38-9.4,9.28-6.57-.13-9.56-3.42-10-9.67-.37-5.69,4.55-9.86,10.81-9.77,4.55.07,8.58,4.85,8.56,10.16"/><path class="cls-6" d="M1482.82,158.48c0,5.73-3.86,9.43-9.5,9.65-6.64.27-9.6-5.31-9.74-9.68a9.51,9.51,0,0,1,9.49-9.81c6,0,9.77,3.85,9.75,9.84"/><path class="cls-6" d="M1735.36,81.15a10.19,10.19,0,0,1-9.94-9.83c0-4.89,4.59-9.73,9.42-9.9a10.63,10.63,0,0,1,10.58,9.9c.21,4.62-5,9.74-10.06,9.83"/><path class="cls-6" d="M1882.55,206.51c5.67-.42,9.62,4.93,9.74,9.33a10.11,10.11,0,0,1-9.93,10.11,9.57,9.57,0,0,1-9.79-10.08c.28-4.66,4.19-9.84,10-9.36"/><path class="cls-6" d="M1844,187.09c-.59-6.18,4.69-9.89,9.18-9.85,5.66,0,10.36,3.52,10.25,9.48-.1,5.68-3.47,9.74-10.14,9.92-5.33.13-9.28-4.06-9.29-9.55"/><path class="cls-6" d="M1584.42,138.16c-6.51.05-9.69-4.86-9.7-9.85a10,10,0,0,1,9.94-9.6,10.29,10.29,0,0,1,9.83,9.69c0,5.59-4.29,9.79-10.07,9.76"/><path class="cls-6" d="M1799.63,158.66a9.38,9.38,0,0,1-9.48,9.43,9.73,9.73,0,1,1-.09-19.45c5.82,0,9.58,3.9,9.57,10"/><path class="cls-6" d="M1814.07,216.39c-.17-4.64,4.28-9.22,9.11-9.37a9.8,9.8,0,0,1,10.34,9.54c.25,5.08-4,9.57-9.1,9.94a9.6,9.6,0,0,1-10.35-10.11"/><path class="cls-6" d="M1642.74,196.66a9.9,9.9,0,0,1-9.74-9.87,10.11,10.11,0,0,1,9.84-9.63c5.81.12,9.63,4,9.6,9.71a9.5,9.5,0,0,1-9.7,9.79"/><path class="cls-6" d="M1643.31,89.13A9.51,9.51,0,0,1,1653,99c0,4.64-4.11,9.88-9.59,9.71a10,10,0,0,1-9.88-9.87,9.43,9.43,0,0,1,9.81-9.68"/><path class="cls-6" d="M1670.34,148.61c6,.23,10.26,4.47,10,10.06-.26,5.9-4.33,9.65-10.36,9.41a9.77,9.77,0,0,1-9.06-9.93c.2-5.3,4.56-9.72,9.4-9.54"/><path class="cls-6" d="M1844,71.37c0-5.35,4-10,8.78-9.81,7.21.33,9.71,2.69,10.45,9.63.54,5.21-4.45,10.08-9.55,10a9.56,9.56,0,0,1-9.68-9.83"/><path class="cls-6" d="M1724.29,128a9.7,9.7,0,0,1,9.7-9.76,9.89,9.89,0,0,1,9.73,9.65,9.69,9.69,0,0,1-10,9.8,9.35,9.35,0,0,1-9.45-9.69"/><path class="cls-6" d="M1559,118.2a9.69,9.69,0,0,1,9.66,9.84c0,5.62-4,9.63-9.52,9.61a9.73,9.73,0,1,1-.14-19.45"/><path class="cls-6" d="M1660.93,128.1a9.69,9.69,0,0,1,9.89-9.89c5.55.09,9.73,4.52,9.62,10.54-.08,4.43-4.4,9-9.86,8.91s-9.67-4.11-9.65-9.56"/><path class="cls-6" d="M1723.8,216.16a9.72,9.72,0,1,1,19.44.19,9.72,9.72,0,0,1-19.44-.19"/><path class="cls-6" d="M1753,71c.25-5.8,4.79-9.73,10.89-9.45,4.24.21,8.88,5.43,8.68,9.78-.25,5.52-5,10.18-10.14,9.92A10,10,0,0,1,1753,71"/><path class="cls-6" d="M1813.6,186.77a9.74,9.74,0,0,1,9.63-9.68,10.22,10.22,0,0,1,9.81,10.25c0,5.43-5,9.3-10.2,9.63-4.88.3-9.25-4.79-9.24-10.2"/><path class="cls-6" d="M1753.23,99.09c-.22-6.62,4.28-9.93,9.55-10.14s9.92,4.75,9.89,9.87-4.83,9.84-9.73,9.82a9.58,9.58,0,0,1-9.71-9.55"/><path class="cls-6" d="M1512.75,186.87c0,5.83-3.89,9.77-9.62,9.79a9.72,9.72,0,0,1-9.78-9.54,9.94,9.94,0,0,1,10.18-10c4,0,9.66,3.84,9.22,9.76"/><path class="cls-6" d="M1814.59,71.15c-.64-4.32,3.82-9.69,9.57-9.67a10.06,10.06,0,0,1,9.8,10c.09,4.77-4.49,9.94-9.11,9.81-6.07-.16-10.66-4.28-10.26-10.1"/><path class="cls-6" d="M1814.59,128.36c-.72-5.29,5.24-9.79,9.84-9.67,5.58.14,9.55,5.59,9.56,9.42,0,6-4.12,10.06-10,10s-9.46-3.85-9.45-9.8"/><path class="cls-6" d="M1593.47,187.16a10.22,10.22,0,0,1-10.35,9.67c-5.06-.26-9.68-5.3-9.34-10.18.38-5.37,5.12-9.82,10.18-9.55s9.81,5.29,9.51,10.06"/><path class="cls-6" d="M1789.61,177.09c5.1,0,9.84,4.75,9.88,9.94a9.89,9.89,0,0,1-9.93,9.72,10.22,10.22,0,0,1-9.81-10c0-4.9,4.87-9.67,9.86-9.69"/><path class="cls-6" d="M1424.37,216.16c.34,5.17-3.78,9.45-9.4,9.77-5.92.34-9.34-3.61-9.92-9.73-.46-4.82,4-9.2,9.37-9.69a9.4,9.4,0,0,1,9.95,9.65"/><path class="cls-6" d="M1844.53,127.84c0-5.73,3.79-9.6,9.42-9.63s9.55,4,9.54,9.8c0,6.06-3.84,9.7-10.15,9.64-5.29,0-8.82-4-8.81-9.81"/><path class="cls-6" d="M1892.42,98.67c.28,6.18-4.8,9.68-9.61,10s-9.81-4.8-9.79-9.92A10.28,10.28,0,0,1,1883,88.9a9.61,9.61,0,0,1,9.47,9.77"/><path class="cls-6" d="M1394,187.15a9.72,9.72,0,0,1-9.73,9.68,9.85,9.85,0,1,1,.36-19.7,9.68,9.68,0,0,1,9.37,10"/><path class="cls-6" d="M1574.62,216.39c.32-6.27,3.5-8.79,9.47-9.28,5.35-.43,10,4.5,10,9.91,0,5.23-4.57,9.49-10.1,9.44s-9.39-4.2-9.35-10.07"/><path class="cls-6" d="M1624,98.7a9.68,9.68,0,0,1-9.54,10c-5.12,0-9.9-4.85-9.86-9.94a10,10,0,0,1,10-9.69A9.27,9.27,0,0,1,1624,98.7"/><path class="cls-6" d="M1679.88,187.19a9.84,9.84,0,0,1-9.74,9.65c-4.91-.06-9.73-4.85-9.7-9.63,0-5.74,4.39-10.2,9.85-10.1a9.89,9.89,0,0,1,9.59,10.08"/><path class="cls-6" d="M1568.13,187.08a9.76,9.76,0,0,1-9.8,9.76c-4-.05-9.83-3.92-9.65-10.05.14-4.9,4.89-9.66,9.88-9.7a9.75,9.75,0,0,1,9.57,10"/><path class="cls-6" d="M1614.17,206.51a10,10,0,0,1,9.86,9.35c.3,5.64-4.66,10.15-10.48,10.07s-9.16-4.31-9.2-9.48c0-5.41,3.43-9.94,9.82-9.94"/><path class="cls-6" d="M1414.82,196.53a9.71,9.71,0,1,1,9.62-9.37,9.09,9.09,0,0,1-9.62,9.37"/><path class="cls-6" d="M1624,128.18a9.34,9.34,0,0,1-9.73,9.47c-6.26,0-9.18-4.28-9.63-9.66-.41-5,4.41-9.76,9.32-9.78,6,0,10,4,10,10"/><path class="cls-6" d="M1584.83,89.27c5.09-.71,9.67,4.53,9.67,9.56s-4.75,9.76-10,9.86c-5,.09-9.35-4.39-9.36-9.65,0-6.22,3.51-9.77,9.71-9.77"/><path class="cls-6" d="M1799.13,216.46c0,5.67-3.8,9.48-9.43,9.5a9.54,9.54,0,0,1-9.53-9.9c0-5.69,4-9.6,9.71-9.55s9.27,3.9,9.25,10"/><path class="cls-6" d="M1482.32,187c.43,5.84-5,9.83-9.49,9.67-6.59-.22-9.31-3.46-9.81-9.83-.4-5.13,4.48-9.73,9.63-9.69a9.59,9.59,0,0,1,9.67,9.85"/><path class="cls-6" d="M1863.49,158.66c0,5.54-4,9.43-9.7,9.43-5.52,0-9.48-4.16-9.48-10,0-5.37,4.26-9.33,9.76-9.53,5-.18,10,5.06,9.42,10.07"/><path class="cls-6" d="M1833.05,158.69c0,5.42-4,9.3-9.47,9.43a9.89,9.89,0,0,1-9.64-10.18c.06-4.69,4.34-9.52,9.57-9.34,5.9.21,9.56,3.94,9.54,10.09"/><path class="cls-6" d="M1521.73,187.07c0-6.9,3.93-9.35,9.23-9.82a9.52,9.52,0,0,1,10.06,10c-.38,5.14-3.19,9.46-10.06,9.31a9,9,0,0,1-9.23-9.48"/><path class="cls-6" d="M1882.65,177.13c5.2.18,9.79,5,9.57,9.93a10.06,10.06,0,0,1-10.25,9.77c-4.85-.25-9.53-5.05-9.41-9.69.13-5.49,4.88-10.2,10.09-10"/><path class="cls-6" d="M1670.26,206.51c5.19,0,9.68,4.46,9.62,9.43-.05,4.82-3.6,10.22-9.51,10-5.57-.18-9.92-4.3-9.93-9.71a9.78,9.78,0,0,1,9.82-9.76"/><path class="cls-6" d="M1541.19,98.89c.47,6-5.33,9.66-9.59,9.74-5.15.09-9.89-4.85-9.85-10a10,10,0,0,1,9.59-9.54c5.88-.06,9.84,3.87,9.85,9.76"/><path class="cls-6" d="M1614.1,196.53c-5.55,0-10.26-4.24-9.87-9.65s3.8-9.39,9.78-9.7c5.27-.28,10.16,4.91,9.91,10.39-.21,4.7-4.76,9.41-9.82,9"/><path class="cls-6" d="M1724.3,98.59a9.55,9.55,0,0,1,9.33-9.69,10.18,10.18,0,0,1,10.06,9.73c.1,5.15-4.54,10-9.76,10-4,0-9.82-3.42-9.63-10"/><path class="cls-6" d="M1814.09,98.74A9.24,9.24,0,0,1,1823.7,89,9.58,9.58,0,0,1,1833.15,99c-.08,5.49-4.78,9.7-9.47,9.54-5.54-.18-10.21-4.39-9.59-9.83"/><path class="cls-6" d="M1781.15,71.6c.24-6.38,4.42-10.42,10.4-10.07,4.94.29,9.26,5.32,9,10.5-.22,4.74-5,9-10,8.88-5.65-.16-9.62-4.08-9.43-9.31"/><path class="cls-6" d="M1482.82,217.09c.08,5.11-3.58,9.46-10.09,9.39-5.28-.06-9.06-4.24-9.08-10.34,0-5.31,4.79-8.89,9.66-9.07,5.44-.21,9.49,4.19,9.51,10"/><path class="cls-6" d="M1512.75,216.4c0,5.39-4.28,9.5-9.9,9.55-4.35,0-9.42-4.23-9.44-9.42a9.75,9.75,0,0,1,9.79-10c5.59.05,9.57,4.17,9.55,9.89"/><path class="cls-6" d="M1844.53,98.68c-.76-4.73,4.11-9.67,9.13-9.81a9.57,9.57,0,0,1,9.83,9.9c0,5.6-4.15,9.94-9.66,9.83-4.17-.08-10-4-9.3-9.92"/><path class="cls-6" d="M1339.13,216.88c0,5.13-4.62,9.54-10.13,9.57-4.85,0-9.23-4.6-9.3-9.85-.07-4.53,4.29-9.49,8.29-9.45,7,.06,11.09,3.6,11.14,9.73"/><path class="cls-6" d="M1359.17,226a10,10,0,0,1-9.56-9.79c0-5.26,4.17-9.7,9-9.66,5.88.06,10.7,4.25,10.35,9.39-.4,5.71-3.62,9.88-9.8,10.06"/><path class="cls-6" d="M1394.51,217c0,5.48-4.09,9.4-9.72,9.41a9.85,9.85,0,0,1-9.68-9.31c-.06-4.87,5-10.51,10.9-10.08,4.19.3,8.54,5.06,8.5,10"/></g></g></g></g></svg>