<svg id="Layer_1" data-name="Layer 1" xmlns="http://www.w3.org/2000/svg" xmlns:xlink="http://www.w3.org/1999/xlink" viewBox="0 0 800 362.65"><defs><style>.cls-1{fill:none;}.cls-2{fill:#ac1f25;}.cls-3{clip-path:url(#clip-path);}</style><clipPath id="clip-path"><rect class="cls-1" y="-215.56" width="800" height="800"/></clipPath></defs><title>home</title><polygon class="cls-2" points="352.71 77.16 352.17 77.41 370.43 117.04 370.43 177.18 385.39 180.38 385.39 149.51 405.1 192.27 405.2 202.42 419.79 200.39 358.99 67.61 352.02 77.09 352.17 77.41 352.71 77.16 353.19 77.51 358.75 69.96 418.02 199.43 406.39 201.04 406.3 192 384.19 144.04 384.19 178.9 371.63 176.21 371.63 116.77 353.26 76.91 352.71 77.16 353.19 77.51 352.71 77.16"/><polygon class="cls-2" points="271.01 301.63 271.01 302.23 286.17 302.23 286.17 166.57 278.11 177.53 139.27 198.47 139.27 255.37 270.41 263.1 270.41 273.08 64.87 264.67 64.87 270.47 270.41 277.81 270.41 302.23 271.01 302.23 271.01 301.63 271.61 301.63 271.61 276.65 66.07 269.31 66.07 265.92 271.61 274.33 271.61 261.96 140.47 254.24 140.47 199.5 278.78 178.65 284.97 170.23 284.97 301.02 271.01 301.02 271.01 301.63 271.61 301.63 271.01 301.63"/><g class="cls-3"><path class="cls-2" d="M75.41,176.64l-.06.59,5.36.59-2.63-4.69h0a18.67,18.67,0,0,1-2.55-9.26,16.69,16.69,0,0,1,7.81-14.22,12.62,12.62,0,0,1,11.37-1.07c4.1,1.58,8.56,5.48,12.41,13.1h0l4.26,8.37.93-9.34a16.62,16.62,0,0,1,6.44-11.52,21.24,21.24,0,0,1,12.48-4.47h.53A16.82,16.82,0,0,1,143.32,149c3.11,2.87,5.36,7.36,5.81,14.07l.6,0-.48-.36-20.59,27.21L270.91,166,360.43,47.64l-94,26.42v-17l-15.54-5.51-16.8,5.29-.44,26.42-31,8.71L153,157.72l.48.36L154,158a23.92,23.92,0,0,0-7-13.05,22.22,22.22,0,0,0-15.24-5.68h-.67c-9.64.25-19.39,5.94-23,15.46l.56.21.5-.33c-3.74-5.66-8-9.38-12.56-11.13a17.31,17.31,0,0,0-6.27-1.16,19.12,19.12,0,0,0-4,.44l.12.58.3-.52c-7.46-4.3-10.4-10.43-10.41-16.23a17.17,17.17,0,0,1,1.08-6,15.15,15.15,0,0,1,7.24-8.36A13.88,13.88,0,0,1,91,110.74a18,18,0,0,1,6.18,1.17h0l5.11,1.86-1.58-5.2h0A22.6,22.6,0,0,1,99.68,102a12.36,12.36,0,0,1,2.08-7.24,10.88,10.88,0,0,1,5-3.86,11.64,11.64,0,0,1,4.23-.79c4.2,0,8.57,2.22,11.23,7.36l3.38,6.56,1.72-7.16c2.83-11.77,11.88-19.11,21.57-20.58a24.13,24.13,0,0,1,3.69-.28,22.5,22.5,0,0,1,12.35,3.61,27.78,27.78,0,0,1,9.8,11.71l.54-.26-.55.22A2.72,2.72,0,0,0,177,93h.27a2.72,2.72,0,0,0,2.28-1.23,2.7,2.7,0,0,0,.12-2.82l-.52.28.54-.25c-5.91-12.48-16.56-18.39-27.09-18.44h-.17a29.73,29.73,0,0,0-4.32.35,31.85,31.85,0,0,0-24.72,20.35l.56.21.46-.39a18,18,0,0,0-13.61-6.38,16.6,16.6,0,0,0-6,1.13c-6,2.32-10.43,8.35-10.42,16.58a24.8,24.8,0,0,0,.33,4l.59-.1.12-.59a23,23,0,0,0-4.45-.44,19.1,19.1,0,0,0-8.67,2,20.6,20.6,0,0,0-9.93,11.34A21.84,21.84,0,0,0,71,126.31c0,6.89,3.17,14.12,10.18,19.3l.36-.48-.29-.52a7.59,7.59,0,0,0-.72.34,22.2,22.2,0,0,0-10.38,18.93,23.54,23.54,0,0,0,1.64,8.57l.56-.21v-.6H72.2a30.7,30.7,0,0,0-6.87.78l-.46.1v5.59l.75-.21a25.16,25.16,0,0,1,6.55-.86,26.54,26.54,0,0,1,3.17.19h0l.06-.59.07-.6a28.94,28.94,0,0,0-3.31-.2,26.57,26.57,0,0,0-6.86.9l.16.58h.6V173h-.6l.13.59a29.46,29.46,0,0,1,6.6-.75h1l-.32-.82a22.52,22.52,0,0,1-1.55-8.14,21,21,0,0,1,9.8-17.9c.12-.09.37-.16.68-.32l.82-.45-.75-.56c-6.72-5-9.7-11.82-9.7-18.34a20.83,20.83,0,0,1,1.28-7.22A19.46,19.46,0,0,1,82.8,108.4a18,18,0,0,1,8.13-1.86,21.48,21.48,0,0,1,4.22.42l.85.17-.14-.85a23.7,23.7,0,0,1-.32-3.85c0-7.8,4.15-13.31,9.66-15.47a15.41,15.41,0,0,1,5.6-1,16.78,16.78,0,0,1,12.7,5.95l.65.76.36-.93a30.64,30.64,0,0,1,23.78-19.59,27.52,27.52,0,0,1,4.14-.34h.17c10.08.07,20.26,5.66,26,17.75v0h0a1.54,1.54,0,0,1-1.35,2.28h-.16a1.55,1.55,0,0,1-1.27-1h0v0a28.86,28.86,0,0,0-10.23-12.2,23.7,23.7,0,0,0-13-3.8,25.21,25.21,0,0,0-3.87.29c-10.17,1.54-19.62,9.25-22.56,21.49l-1,4L123.3,97c-2.84-5.51-7.68-8-12.3-8a13,13,0,0,0-4.67.87,12,12,0,0,0-5.55,4.29,13.55,13.55,0,0,0-2.3,7.93,24,24,0,0,0,1.11,6.87h0l.87,2.9-2.85-1h0A19.32,19.32,0,0,0,91,109.54a15.14,15.14,0,0,0-6.85,1.61,16.38,16.38,0,0,0-7.83,9,18.6,18.6,0,0,0-1.15,6.4c0,6.22,3.23,12.81,11,17.27l.2.12.23,0a18.22,18.22,0,0,1,3.77-.41,16.23,16.23,0,0,1,5.84,1.08c4.24,1.63,8.35,5.16,12,10.67l.65,1,.41-1.1c3.34-9,12.66-14.45,21.87-14.68h.64a21.05,21.05,0,0,1,14.43,5.36,22.77,22.77,0,0,1,6.63,12.41l.27,1.3L203.42,93l31.44-8.83.44-26.45,15.59-4.91,14.36,5.09V75.64l92.07-25.88-87.08,115.1-138.8,23.3,18.91-25,0-.23c-.46-6.94-2.83-11.77-6.2-14.87a18,18,0,0,0-12.37-4.56h-.56a22.46,22.46,0,0,0-13.2,4.73,17.84,17.84,0,0,0-6.88,12.34l-.53,5.26-2.4-4.71h0c-3.94-7.8-8.59-12-13-13.68a13.76,13.76,0,0,0-12.43,1.16,17.91,17.91,0,0,0-8.38,15.25,19.84,19.84,0,0,0,2.7,9.85h0l1.5,2.65-3-.33h0Z"/><path class="cls-2" d="M384.72,94l-.44.41,3.18,3.41.92-4.56h0a14.89,14.89,0,0,1,5.28-9,13.85,13.85,0,0,1,8.51-3,12.73,12.73,0,0,1,2.06.17,10.33,10.33,0,0,1,7.63,5.42,15.91,15.91,0,0,1,1.67,7.54,30.59,30.59,0,0,1-1,7.3l-1.94,7.88,5.88-5.59A13.58,13.58,0,0,1,426,100.3a17.37,17.37,0,0,1,10.82,3.94,13.91,13.91,0,0,1,5.24,9.11,12.29,12.29,0,0,1,.09,1.49c0,3.27-1.22,7-4.48,11h0a2.37,2.37,0,0,0-.37,2.35,2.37,2.37,0,0,0,1.85,1.48,2.19,2.19,0,0,0,.36,0,2.38,2.38,0,0,0,1.86-.89c3.8-4.76,5.52-9.62,5.52-14.09a18.14,18.14,0,0,0-.11-2,18.6,18.6,0,0,0-6.94-12.21,22.13,22.13,0,0,0-13.83-5,18.68,18.68,0,0,0-9,2.25l.29.53.59.08a32.88,32.88,0,0,0,.29-4.21A20.21,20.21,0,0,0,416,84.64a15.22,15.22,0,0,0-11-7.85,17.66,17.66,0,0,0-2.81-.23,18.87,18.87,0,0,0-17.63,12.8l.56.2.39-.45a20.07,20.07,0,0,0-1.85-1.36c-1.19-.8-2.7-1.73-4.12-2.54a25.44,25.44,0,0,0-3.66-1.8l-1.35-.47,3.1,6.56.2.09a21.07,21.07,0,0,1,6.41,4.81h0l.44-.41.44-.41a22.32,22.32,0,0,0-6.79-5.07l-.26.54.55-.26-2.4-5.07-.55.25-.19.57a33.48,33.48,0,0,1,4.87,2.54c.94.57,1.86,1.15,2.63,1.67A19.86,19.86,0,0,1,384.76,90l.66.57.3-.83a17.69,17.69,0,0,1,16.5-12,16.22,16.22,0,0,1,2.61.21A14,14,0,0,1,415,85.2a19,19,0,0,1,2,9,32.26,32.26,0,0,1-.27,4l-.16,1.17,1-.56A17.41,17.41,0,0,1,426,96.8a21,21,0,0,1,13.07,4.71,17.47,17.47,0,0,1,6.51,11.42c.06.6.1,1.22.1,1.84,0,4.16-1.59,8.75-5.26,13.34a1.18,1.18,0,0,1-.92.44h-.18a1.19,1.19,0,0,1-.91-.74,1.25,1.25,0,0,1-.08-.42,1.17,1.17,0,0,1,.26-.74h0c3.39-4.23,4.74-8.22,4.74-11.8a14.38,14.38,0,0,0-.1-1.62,15.13,15.13,0,0,0-5.67-9.91A18.55,18.55,0,0,0,426,99.1a14.78,14.78,0,0,0-10.35,4.05l-2.92,2.77,1-3.9h0a31.82,31.82,0,0,0,1-7.59,16.88,16.88,0,0,0-1.82-8.1,11.5,11.5,0,0,0-8.48-6,13.09,13.09,0,0,0-2.26-.19,15,15,0,0,0-9.25,3.26A16,16,0,0,0,387.2,93h0l-.46,2.27-1.59-1.71h0Z"/><polygon class="cls-2" points="340.86 170.11 340.73 170.69 361.53 175.23 361.88 95.61 352.83 75.98 340.41 92.86 340.26 170.59 340.73 170.69 340.86 170.11 341.46 170.11 341.61 93.25 352.59 78.33 360.68 95.88 360.33 173.74 340.99 169.52 340.86 170.11 341.46 170.11 340.86 170.11"/><polygon class="cls-2" points="330.26 107.67 329.77 107.32 314.02 128.73 314.02 164.61 330.86 168.22 330.86 105.84 329.77 107.32 330.26 107.67 329.66 107.67 329.66 166.74 315.22 163.64 315.22 129.13 330.74 108.03 330.26 107.67 329.66 107.67 330.26 107.67"/><polygon class="cls-2" points="371.03 211.88 370.43 211.88 370.43 268.75 385.81 269.52 385.39 213.48 370.43 211.18 370.43 211.88 371.03 211.88 370.94 212.47 384.2 214.51 384.6 268.26 371.63 267.61 371.63 211.88 371.03 211.88 370.94 212.47 371.03 211.88"/><polygon class="cls-2" points="314.62 265.13 314.59 265.73 330.86 266.55 330.86 204.87 314.02 202.14 314.02 265.7 314.59 265.73 314.62 265.13 315.22 265.13 315.22 203.55 329.66 205.89 329.66 265.29 314.65 264.53 314.62 265.13 315.22 265.13 314.62 265.13"/><polygon class="cls-2" points="426.54 196.49 426.29 195.94 418.74 199.33 405.2 201.21 405.2 215.01 481.6 207.96 540.4 124.42 483.1 134.05 483.1 119.95 471.46 115.82 458.88 119.78 458.57 138.18 403.42 147.45 425.99 196.74 426.54 196.49 426.29 195.94 426.54 196.49 427.08 196.24 405.17 148.37 459.76 139.19 460.06 120.67 471.43 117.09 481.9 120.8 481.9 135.47 537.76 126.08 480.94 206.82 406.4 213.69 406.4 202.26 419.07 200.49 427.33 196.78 427.08 196.24 426.54 196.49"/><polygon class="cls-2" points="489.3 301.63 489.9 301.63 489.9 207.09 484.83 214.29 405.2 221.02 405.2 270.81 479.99 275.09 479.99 281.64 405.2 278.58 405.2 282.62 479.99 285.29 479.99 302.23 489.9 302.23 489.9 301.63 489.3 301.63 489.3 301.02 481.19 301.02 481.19 284.13 406.4 281.46 406.4 279.83 481.19 282.89 481.19 273.95 406.4 269.68 406.4 222.13 485.49 215.44 488.7 210.88 488.7 301.63 489.3 301.63 489.3 301.02 489.3 301.63"/><polygon class="cls-2" points="520.02 165.83 519.53 165.49 508.49 181.58 508.49 206.66 520.54 209.24 520.63 163.89 519.53 165.49 520.02 165.83 519.42 165.83 519.34 207.76 509.69 205.69 509.69 181.95 520.52 166.17 520.02 165.83 519.42 165.83 520.02 165.83"/><polygon class="cls-2" points="548.21 239.28 547.61 239.28 547.61 278.9 558.64 279.45 558.35 240.24 547.61 238.59 547.61 239.28 548.21 239.28 548.12 239.88 557.16 241.27 557.43 278.19 548.81 277.76 548.81 239.28 548.21 239.28 548.12 239.88 548.21 239.28"/><polygon class="cls-2" points="509.09 276.21 509.06 276.81 520.54 277.39 520.54 234.27 508.49 232.32 508.49 276.78 509.06 276.81 509.09 276.21 509.69 276.21 509.69 233.73 519.34 235.29 519.34 276.13 509.12 275.61 509.09 276.21 509.69 276.21 509.09 276.21"/><path class="cls-2" d="M721.9,246.91l.38.47c4.44-3.57,6.29-7.74,6.28-11.66a14.75,14.75,0,0,0-14.2-14.24,12.07,12.07,0,0,0-6.74,2.07l.33.5.57.18a18.73,18.73,0,0,0,1-5.89,17.53,17.53,0,0,0-5.79-12.91,18.76,18.76,0,0,0-12.55-5.1,14.67,14.67,0,0,0-11,4.78l-.28.29,21.8,45.6-2.31,1.56L667.7,186.21l-3.84,5.44,27.53,57.61v38.53l31.47,1.81.2-.27A13.51,13.51,0,0,0,725.3,282a12.5,12.5,0,0,0-2.46-7.36l-.49.35.07.6a13.34,13.34,0,0,0,9.07-5,15.52,15.52,0,0,0,0-18.6,15.49,15.49,0,0,0-9.5-5.65l-.12.59.38.47-.38-.47-.11.59a14.28,14.28,0,0,1,8.77,5.2,14.32,14.32,0,0,1,0,17.13,12.2,12.2,0,0,1-8.28,4.58l-1,.12.59.82A11.18,11.18,0,0,1,724.1,282a12.29,12.29,0,0,1-1,4.76,13.14,13.14,0,0,1-.7,1.38c-.1.16-.17.28-.23.36l-.06.09v0l.48.36,0-.6-30-1.72V249l-27.34-57.21,2.25-3.2,31.43,65.76,4.32-2.91-22.07-46.17-.54.26.44.41a13.41,13.41,0,0,1,10.08-4.39,17.64,17.64,0,0,1,11.74,4.78,16.35,16.35,0,0,1,5.4,12,17.58,17.58,0,0,1-.92,5.52l-.53,1.64,1.44-.95a10.82,10.82,0,0,1,6.07-1.87,13.07,13.07,0,0,1,9,3.92,12.93,12.93,0,0,1,4,9.12c0,3.54-1.63,7.33-5.83,10.72l-1,.81,1.26.25Z"/><polygon class="cls-2" points="692 291.61 691.4 291.61 691.4 293.56 723.32 294.71 723.32 292.28 691.4 290.98 691.4 291.61 692 291.61 691.98 292.21 722.12 293.43 722.12 293.47 692.6 292.41 692.6 291.61 692 291.61 691.98 292.21 692 291.61"/><polygon class="cls-2" points="659.29 238.2 659.16 238.79 669.7 241.09 669.8 201.29 664.63 190.48 658.64 199.87 658.69 238.69 659.16 238.79 659.29 238.2 659.89 238.2 659.84 200.22 664.48 192.95 668.6 201.56 668.5 239.6 659.42 237.62 659.29 238.2 659.89 238.2 659.29 238.2"/><polygon class="cls-2" points="654.16 206.83 653.67 206.49 645.86 217.88 645.86 235.76 654.7 237.66 654.77 204.89 653.67 206.49 654.16 206.83 653.56 206.83 653.5 236.18 647.05 234.79 647.05 218.25 654.66 207.17 654.16 206.83 653.56 206.83 654.16 206.83"/><polygon class="cls-2" points="680.6 225.29 681.14 225.03 673.49 209.01 673.44 241.91 681.38 243.61 681.2 225.15 681.14 225.03 680.6 225.29 680 225.29 680.16 242.12 674.64 240.94 674.68 214.29 680.06 225.54 680.6 225.29 680 225.29 680.6 225.29"/><polygon class="cls-2" points="669.1 257.89 669.19 257.29 658.73 255.68 658.73 301.03 633.1 301.03 633.1 235.37 629.25 240.83 573.03 245.59 573.03 281.02 625.76 284.04 625.76 287.53 573.09 285.44 573.09 288.6 625.75 290.5 625.76 301.03 541.81 301.03 541.81 237.72 526.75 235.41 526.75 301.03 361.53 301.03 361.53 209.85 340.35 206.59 340.35 301.03 64.87 301.03 64.87 320.64 723.38 309.18 723.38 301.03 669.7 301.03 669.7 257.37 669.19 257.29 669.1 257.89 668.5 257.89 668.5 302.23 722.18 302.23 722.18 308 66.07 319.42 66.07 302.23 341.55 302.23 341.55 207.99 360.33 210.88 360.33 302.23 527.96 302.23 527.96 236.8 540.61 238.75 540.61 302.23 626.96 302.23 626.96 289.34 574.29 287.44 574.29 286.69 626.96 288.78 626.96 282.9 574.23 279.89 574.23 246.69 629.91 241.98 631.9 239.16 631.9 302.23 659.93 302.23 659.93 257.08 669.01 258.48 669.1 257.89 668.5 257.89 669.1 257.89"/><polygon class="cls-2" points="674.04 286.15 674.01 286.75 681.57 287.13 681.36 259.14 673.44 257.93 673.44 286.73 674.01 286.75 674.04 286.15 674.64 286.15 674.64 259.32 680.17 260.18 680.36 285.87 674.07 285.56 674.04 286.15 674.64 286.15 674.04 286.15"/><polygon class="cls-2" points="646.46 284.66 646.42 285.26 654.7 285.68 654.7 254.94 645.86 253.51 645.86 285.23 646.42 285.26 646.46 284.66 647.05 284.66 647.05 254.92 653.5 255.96 653.5 284.42 646.49 284.06 646.46 284.66 647.05 284.66 646.46 284.66"/><path class="cls-2" d="M566,138.71l-.28.54a16.66,16.66,0,0,1,8.75,14.94c0,.6,0,1.22-.09,1.84l-.51,5.28,3.84-3.67a8.21,8.21,0,0,1,5.73-2.46,7.28,7.28,0,0,1,4.73,1.73,6.62,6.62,0,0,1,2.42,5.14,11.33,11.33,0,0,1-2.49,6.52l-2.29,3.18,3.92-.08h.22a9.14,9.14,0,0,1,9.71,9.18v.24a10.68,10.68,0,0,1-4.65,8.82l.34.49-.1-.59-24.1,4.06,16.33,34.28-4.28,1.92-44-93-4.92,7-7.64,12,.07,54.78,15.12,3.29.13-53.3,6.2,13,1.08-.51-.41-.86L547.68,170l-.07,45.35,10.75,2.31-.21-23,14.92,31.24-.05,6.2h0v9.55l54.15-5,41.75-59.32-40.62,6.84v-9.87l-8.38-3-9,2.86-.22,13L599.91,189l.1.59.47.37a14.71,14.71,0,0,0,3.09-8.91c0-.1,0-.2,0-.31a13.39,13.39,0,0,0-3.7-9.1,13.23,13.23,0,0,0-7.76-3.75l-.08.6.52.28a14.18,14.18,0,0,0,1.82-6.73,10.54,10.54,0,0,0-3.67-8.15,11.13,11.13,0,0,0-7.22-2.61,12,12,0,0,0-6,1.66l.3.52.6,0a20.63,20.63,0,0,0-10.84-17.7,19.4,19.4,0,0,0-2.68-1.17,18.35,18.35,0,0,0-5.91-1A20,20,0,0,0,545.46,139l-.33.3,1.79,3.77.6-.58c3.65-3.54,7.58-5,11.31-5a14.69,14.69,0,0,1,6.85,1.73l.28-.54.28-.53a16,16,0,0,0-7.41-1.86,17.33,17.33,0,0,0-12.14,5.35l.41.43.55-.26-1.25-2.61-.54.26.4.45a18.81,18.81,0,0,1,12.64-5.12,17.08,17.08,0,0,1,5.52.91,18,18,0,0,1,2.51,1.09,19.46,19.46,0,0,1,10.21,16.68l0,1L578,154a10.75,10.75,0,0,1,5.43-1.49,10,10,0,0,1,6.44,2.32,9.35,9.35,0,0,1,3.25,7.24,13,13,0,0,1-1.67,6.16l-.41.77.86.11a12,12,0,0,1,7.06,3.4,12.25,12.25,0,0,1,3.36,8.29,2.62,2.62,0,0,1,0,.28,13.52,13.52,0,0,1-2.84,8.18l-.93,1.21,13.24-2.24.22-13.1,7.84-2.47,7.2,2.56v10.44l39.18-6.6L626.5,235.56l-52.28,4.82v-8.23h0l.06-6.48L556.9,189.3l.25,26.89-8.34-1.79.06-41.74h-.6l-.54.26.41.85,1.08-.51-8.47-17.73-.14,57.08-12.72-2.77-.06-53.46,7.43-11.66,3.72-5.28,43.59,92.21,6.48-2.91-16.18-34L595.55,191l.11-.08a11.89,11.89,0,0,0,5.16-9.8v-.26a10.34,10.34,0,0,0-10.91-10.36h-.25l-1.51,0,.89-1.23a12.55,12.55,0,0,0,2.71-7.22,7.81,7.81,0,0,0-2.84-6.06,8.55,8.55,0,0,0-5.51-2,9.43,9.43,0,0,0-6.56,2.79l-1.51,1.44.2-2.06a18.65,18.65,0,0,0,.1-2,17.88,17.88,0,0,0-9.39-16Z"/></g></svg>