<svg id="Capa_1" data-name="Capa 1" xmlns="http://www.w3.org/2000/svg" viewBox="0 0 608.69 367.57"><defs><style>.cls-1{opacity:0.21;}.cls-2{fill:#a62434;}</style></defs><title>invest_icon</title><g class="cls-1"><path class="cls-2" d="M528.58,210.42h0L447.85,7.72A8.39,8.39,0,0,0,437,3h0L109.45,133.43a8.28,8.28,0,0,0-3.36,2.67,8.32,8.32,0,0,0-4.47,7.29V361.61A8.39,8.39,0,0,0,110,370H462.52a8.4,8.4,0,0,0,8.4-8.39V242.42l53-21.1A8.38,8.38,0,0,0,528.58,210.42ZM454.13,353.21H118.4V151.78H454.13ZM241.66,135,382.19,79a66.77,66.77,0,0,0,48.12,20.74l14,35.25ZM470.92,224.4v-81a8.4,8.4,0,0,0-8.4-8.4h-.13L444.6,90.32a5.94,5.94,0,0,0-.69-1,8.3,8.3,0,0,0-8.77-6.47,50.15,50.15,0,0,1-44-18.95A8.32,8.32,0,0,0,380.37,62a9.43,9.43,0,0,0-1.18.22L207.62,130.51A8.31,8.31,0,0,0,203,135H150.9L435.36,21.73l74.52,187.12Z" transform="translate(-8.44 -2.43)"/><path class="cls-2" d="M141.18,296.55a50.19,50.19,0,0,1,33.89,33.84,8.4,8.4,0,0,0,8,6,8.22,8.22,0,0,0,1.29-.2,7.58,7.58,0,0,0,1.15.24H387a9,9,0,0,0,1-.21,7.81,7.81,0,0,0,9.44-5.75s0,0,0,0a50.19,50.19,0,0,1,33.88-33.89,8.28,8.28,0,0,0,5.76-9.23,8.76,8.76,0,0,0,.24-1.24V218.92a7.57,7.57,0,0,0-.25-1.24,8.27,8.27,0,0,0-5.76-9.23,50.13,50.13,0,0,1-33.86-33.89,8.3,8.3,0,0,0-9.3-5.76,7,7,0,0,0-1.19-.23H185.55a7.69,7.69,0,0,0-1.25.25,8.29,8.29,0,0,0-9.23,5.75,50.17,50.17,0,0,1-33.89,33.88,8.28,8.28,0,0,0-5.75,9.23,8.76,8.76,0,0,0-.24,1.24v67.15a8.1,8.1,0,0,0,.24,1.17A8.3,8.3,0,0,0,141.18,296.55ZM152,222.33a66.63,66.63,0,0,0,37-37H383.57a66.61,66.61,0,0,0,37,37v60.33a66.66,66.66,0,0,0-37,37H189a66.69,66.69,0,0,0-37-37Z" transform="translate(-8.44 -2.43)"/><path class="cls-2" d="M286.27,302.86a50.36,50.36,0,1,0-50.36-50.36A50.36,50.36,0,0,0,286.27,302.86Zm0-83.94a33.58,33.58,0,1,1-33.58,33.58A33.58,33.58,0,0,1,286.27,218.92Z" transform="translate(-8.44 -2.43)"/><path class="cls-2" d="M193.94,265.09a12.59,12.59,0,1,0-12.59-12.59A12.59,12.59,0,0,0,193.94,265.09Zm0-16.79a4.2,4.2,0,1,1-4.19,4.2A4.2,4.2,0,0,1,193.94,248.3Z" transform="translate(-8.44 -2.43)"/><path class="cls-2" d="M378.59,265.09A12.59,12.59,0,1,0,366,252.5,12.59,12.59,0,0,0,378.59,265.09Zm0-16.79a4.2,4.2,0,1,1-4.2,4.2A4.2,4.2,0,0,1,378.59,248.3Z" transform="translate(-8.44 -2.43)"/></g><path d="M73.79,357.91A9.15,9.15,0,0,1,68,356a5.53,5.53,0,0,1-2.47-4.39v-8.51q-16.74-.27-29.65-5.49T15.72,325q-7.28-7.41-7.28-14.28a15.35,15.35,0,0,1,1.79-6.86,19.82,19.82,0,0,1,4.8-6.18A9.58,9.58,0,0,1,21.35,295a10.56,10.56,0,0,1,6.73,2.89q3.42,2.88,8.23,6.86a59.21,59.21,0,0,0,11.81,7.41q7,3.44,17.43,4.26V251.93q-9.06-3.3-18.26-7.14A74.82,74.82,0,0,1,30.41,235a44.1,44.1,0,0,1-12.36-14.83q-4.67-8.91-4.66-22.1t4.39-22.24a43.22,43.22,0,0,1,11.94-15.1,57.28,57.28,0,0,1,16.89-9.33A86.29,86.29,0,0,1,65.55,147v-8A5.4,5.4,0,0,1,68,134.55a9.59,9.59,0,0,1,5.77-1.78,9.78,9.78,0,0,1,5.63,1.78A5.32,5.32,0,0,1,82,139.08v7.42A125.25,125.25,0,0,1,96.72,148a88.9,88.9,0,0,1,14.69,3.56,34.63,34.63,0,0,1,11.25,6q4.4,3.72,4.39,8.65a18,18,0,0,1-1.37,6.32,20.56,20.56,0,0,1-4,6.45,8.66,8.66,0,0,1-6.73,2.88,15.32,15.32,0,0,1-7.27-2.19q-4-2.21-10-4.81T82,171.75v55.74q8.77,3.3,17.71,7.69a75.57,75.57,0,0,1,16.19,10.71A45.82,45.82,0,0,1,127.6,262q4.4,9.75,4.4,23.75,0,25.26-13.87,39.4T82,342.26v9.33A5.44,5.44,0,0,1,79.42,356,9.33,9.33,0,0,1,73.79,357.91ZM67.2,222.27v-50a44.34,44.34,0,0,0-13.45,3.57,23.17,23.17,0,0,0-9.48,7.55,20,20,0,0,0-3.43,12q0,7.68,3.57,12.76A26.38,26.38,0,0,0,54,216.37,123.48,123.48,0,0,0,67.2,222.27ZM80.38,315.9q11.25-2.19,17.71-8.92t6.45-18.26q0-8.79-3.29-14.42a31.52,31.52,0,0,0-8.79-9.61A59.64,59.64,0,0,0,80.38,258Z" transform="translate(-8.44 -2.43)"/><path d="M162.47,343.63A17,17,0,0,1,154.1,341q-4.53-2.61-4.53-7V307.39A36,36,0,0,1,156,286.66a87.22,87.22,0,0,1,16.75-18q10.29-8.51,21.83-16.61t21.69-16.47A95.88,95.88,0,0,0,233,218.16a32.86,32.86,0,0,0,6.59-19.77,30.92,30.92,0,0,0-3.15-13.46,27.37,27.37,0,0,0-9.75-11q-6.58-4.38-17-4.39-11.53,0-19.63,6.59T182,196.74c0,2.75-1.33,5.26-4,7.55s-6.36,3.43-11.11,3.43q-6,0-9.62-3.43t-3.56-12.77q0-14.82,7.68-25.67A51.29,51.29,0,0,1,182,149a64.52,64.52,0,0,1,27.73-6,63.76,63.76,0,0,1,29.37,6.86,55.85,55.85,0,0,1,21.56,19.08q8.08,12.23,8.1,28.69a54.05,54.05,0,0,1-6.46,26.36,86.56,86.56,0,0,1-16.61,21.42,188.26,188.26,0,0,1-21.55,17.57q-11.4,8-21.41,15.1a101.18,101.18,0,0,0-16.48,14.28q-6.45,7.14-6.45,15.1v10.43h80.44q3.85,0,6.73,3.71a14.12,14.12,0,0,1,2.89,8.92,15.29,15.29,0,0,1-2.89,9.2q-2.88,4-6.73,4Z" transform="translate(-8.44 -2.43)"/><path d="M344.78,345.28q-19.77,0-33.64-6.87t-21-18A43.18,43.18,0,0,1,283,296.68q0-8,3.84-10.71c2.57-1.83,6-2.74,10.44-2.74q9.06,0,11.94,3.29a12.07,12.07,0,0,1,2.88,8.24,21.42,21.42,0,0,0,4.26,13.31A26,26,0,0,0,328,316.58a44.14,44.14,0,0,0,16.2,2.89q15.38,0,24.16-8.38t8.78-26.22v-5.21q0-17.57-8.78-26.09t-23.89-8.51H305q-7.41,0-10-3.16a12.27,12.27,0,0,1-2.61-8.1c0-1.27.05-2.42.14-3.43s.23-2.06.41-3.15l6.32-74.68a18.61,18.61,0,0,1,2.06-7,4.9,4.9,0,0,1,4.53-2.6h81.54a7.33,7.33,0,0,1,6.87,4,19.26,19.26,0,0,1,0,17.84,7.31,7.31,0,0,1-6.87,4H323.91L320.07,222H344.5q17.56,0,31.44,5.49A45.86,45.86,0,0,1,398,245.75q8.23,12.76,8.24,33.91v5.21q0,22-8.38,35.28a48.06,48.06,0,0,1-22.24,19.22A78,78,0,0,1,344.78,345.28Z" transform="translate(-8.44 -2.43)"/><path d="M442.52,343.63a16.6,16.6,0,0,1-10.3-3q-4-3-4-6.59V222.82q0-4.11,4-6.72a18.47,18.47,0,0,1,10.3-2.61,15.77,15.77,0,0,1,9.06,2.61,7.84,7.84,0,0,1,3.84,6.72v9.89a47.42,47.42,0,0,1,13.73-14.42q9.06-6.45,22.79-6.45a33.69,33.69,0,0,1,21.83,7.69,46.54,46.54,0,0,1,14.14,19.77q7.13-14,18.39-20.73a44.41,44.41,0,0,1,23.07-6.73,45.4,45.4,0,0,1,23.2,6.32,48.32,48.32,0,0,1,17.7,18.39q6.87,12.09,6.87,29.38V334q0,3.57-4.26,6.59a17.35,17.35,0,0,1-10.29,3,16.86,16.86,0,0,1-10-3q-4.26-3-4.26-6.59V265.93q0-9.33-3.71-15.79a25.24,25.24,0,0,0-9.61-9.75,24.8,24.8,0,0,0-12.21-3.29,23.81,23.81,0,0,0-12.36,3.43,28.4,28.4,0,0,0-9.61,9.61Q537,256.32,537,265.38v68.91a7.4,7.4,0,0,1-4.53,7.14,22.62,22.62,0,0,1-10,2.2,22.23,22.23,0,0,1-9.61-2.2,7.38,7.38,0,0,1-4.67-7.14V265.65a30.25,30.25,0,0,0-3.57-15.1,25.84,25.84,0,0,0-9.34-9.74,24.21,24.21,0,0,0-12.63-3.44,24.68,24.68,0,0,0-12.21,3.3,25.47,25.47,0,0,0-9.61,9.61q-3.7,6.32-3.71,15.65V334q0,3.57-4.26,6.59A17.35,17.35,0,0,1,442.52,343.63Z" transform="translate(-8.44 -2.43)"/></svg>