<?xml version="1.0" encoding="utf-8"?>
<!-- Generator: Adobe Illustrator 23.0.5, SVG Export Plug-In . SVG Version: 6.00 Build 0)  -->
<svg version="1.1" id="Layer_1" xmlns="http://www.w3.org/2000/svg" xmlns:xlink="http://www.w3.org/1999/xlink" x="0px" y="0px"
	 viewBox="0 0 450 450" style="enable-background:new 0 0 450 450;" xml:space="preserve">
<style type="text/css">
	.st0{opacity:0.68;fill:#020202;}
	.st1{clip-path:url(#SVGID_2_);}
	.st2{opacity:5.000000e-02;}
	.st3{clip-path:url(#SVGID_4_);}
	.st4{fill:#FFFFFF;}
</style>
<rect class="st0" width="450" height="450"/>
<g>
	<defs>
		<rect id="SVGID_1_" y="147.1" width="450" height="302.9"/>
	</defs>
	<clipPath id="SVGID_2_">
		<use xlink:href="#SVGID_1_"  style="overflow:visible;"/>
	</clipPath>
	<g class="st1">
		<g class="st2">
			<g>
				<defs>
					<rect id="SVGID_3_" x="9.4" y="278.9" width="431.3" height="162.1"/>
				</defs>
				<clipPath id="SVGID_4_">
					<use xlink:href="#SVGID_3_"  style="overflow:visible;"/>
				</clipPath>
				<g class="st3">
					<path class="st4" d="M162.5,278.9c-1.3,0.8-2.5,1.8-3.6,2.9c-2.4,2.9-1.9,7.2,1,9.6c0,0,0.1,0.1,0.1,0.1
						c3.3,2.4,8,1.7,10.5-1.6c2.1-2.8,1.4-7.4-1.7-9.7c-0.5-0.4-0.9-0.9-1.4-1.3L162.5,278.9z"/>
					<path class="st4" d="M75.8,278.9c-0.6,0.5-1.2,1-1.8,1.4c-2.4,1.7-3.4,4.8-2.5,7.6c0.9,3,3.6,5.1,6.8,5.1
						c2.9,0,5.6-1.9,6.6-4.6c1.2-3.4,0.1-6.4-3.4-8.9c-0.2-0.2-0.5-0.4-0.7-0.6H75.8z"/>
					<path class="st4" d="M55,278.9c-1.8,1.1-3.3,2.5-4.5,4.3c-1.8,3,1,8.7,4.2,9.5c3,0.8,6.2-0.2,8.2-2.6c1.4-2,1.5-5.9-0.1-8.5
						c-0.8-1-1.8-1.9-2.9-2.6H55z"/>
					<path class="st4" d="M99.8,278.9c-1.9,1.5-3.7,2.8-4.4,5.4c-1.2,4.5,2.6,8.4,6.2,8.6s6.3-1.5,7.3-4.4c1.1-3.2-0.1-6.8-3-8.6
						c-0.4-0.3-0.7-0.6-1.1-0.9L99.8,278.9z"/>
					<path class="st4" d="M139.9,278.9c-1.8,1.1-3.4,2.3-4.3,4.4c-1.5,3.5,0.1,7.4,3.4,9c3.9,1.6,7.9,0.1,9.4-3.6
						c1.5-3.2,0.4-6.9-2.6-8.8c-0.4-0.3-0.8-0.7-1.2-1L139.9,278.9z"/>
					<path class="st4" d="M164.6,300.8c-4.5,0-7.2,2.7-7.1,7.1c0.1,4,3.3,7.1,7.3,7c4-0.1,7.1-3.3,7-7.3
						C171.7,303.4,168.9,300.7,164.6,300.8"/>
					<path class="st4" d="M171.8,329.5c0.1-4.4-3.5-7-7.4-7.1s-6.9,3.3-6.9,7.2c0,3.9,3.1,7,7,7c0,0,0.1,0,0.1,0
						c3.9,0.1,7.1-3,7.2-6.9C171.8,329.6,171.8,329.6,171.8,329.5"/>
					<path class="st4" d="M157.5,370.7c0,3.8,3.1,6.9,6.9,7c0.1,0,0.2,0,0.2,0c3.9,0,7.1-3.2,7.1-7.1c0-3.9-3.2-7.1-7.1-7.1
						c0,0,0,0,0,0C160.7,363.5,157.5,366.7,157.5,370.7C157.5,370.7,157.5,370.7,157.5,370.7"/>
					<path class="st4" d="M165.3,419.5c3.8,0.2,7-2.6,7.2-6.4c0-0.1,0-0.3,0-0.4c0-4-3.3-7.2-7.2-7.1c-3.7,0-6.8,2.9-7.1,6.6
						C158.1,416.5,161,419.4,165.3,419.5"/>
					<path class="st4" d="M358.6,433.4c0.3-4.3-3-7-8.2-6.9c-3,0.1-6.2,3.8-6,7.3c0.3,3.8,3.5,6.8,7.4,6.8
						C356,440.4,358.6,437.8,358.6,433.4"/>
					<path class="st4" d="M358.6,412.4c0.5-3.4-2.7-6.7-7.1-6.9c-3.9,0-7.1,3.2-7.2,7.1c0.2,3.8,3.2,6.8,7,7
						c3.9,0.2,7.1-2.8,7.3-6.7C358.6,412.8,358.6,412.6,358.6,412.4"/>
					<path class="st4" d="M351.8,399c3.9,0,7-3.2,6.9-7.1c0-3.9-3.2-7-7.1-6.9l0,0c-4.1,0-7.4,3.1-7.2,7
						C344.5,395.7,346.7,399,351.8,399"/>
					<path class="st4" d="M157.9,434.1c0,4.1,2.8,6.9,7.1,6.8c3.9,0.1,7.1-2.9,7.3-6.7c0,0,0-0.1,0-0.1c-0.1-4-3.4-7.2-7.4-7.1
						c0,0,0,0,0,0C160.9,427,157.8,430.2,157.9,434.1C157.8,434,157.8,434.1,157.9,434.1"/>
					<path class="st4" d="M165,385c-3.9,0-7,3.1-7,7s3.1,7,7,7c4.3,0,7.2-2.8,7.2-7c0.1-3.8-3-6.9-6.8-7
						C165.3,385,165.1,385,165,385"/>
					<path class="st4" d="M172.2,349.3c0-4.2-2.8-7.1-6.9-7.1c-4.3,0-7.5,3-7.4,7c0.2,3.9,3.3,6.9,7.2,7.1c3.9,0.1,7.1-3,7.1-6.9
						C172.2,349.4,172.2,349.3,172.2,349.3"/>
					<path class="st4" d="M9.4,329.4c0,3.6,3.4,7.2,7.1,7.1c4.3-0.1,7.2-2.6,7.2-6.4c0-5.6-2.6-7.2-7.2-7.7
						C13.1,322,9.4,325.9,9.4,329.4"/>
					<path class="st4" d="M9.4,307.8c0,3.5,3.7,7,7.3,7c3.9,0,7-3.1,7.1-6.9c0,0,0,0,0-0.1c0-3.9-3.4-7.4-7.2-7.2
						C12.4,300.8,9.3,304.2,9.4,307.8"/>
					<path class="st4" d="M42.8,308.8c-0.1-5.4-2.7-7.8-8.4-7.9c-2.4,0-5.6,4.2-5.5,7.3c0.1,3.9,3.3,6.9,7.2,6.8c0,0,0.1,0,0.1,0
						C39.8,315,42.8,312.2,42.8,308.8"/>
					<path class="st4" d="M9.4,287c0,3.5,3.4,6.6,7.2,6.6c3.9,0.1,7-3,7.1-6.9c0-0.1,0-0.2,0-0.3c-0.2-3.7-3.2-6.7-6.9-6.8
						C13,279.4,8.9,283.6,9.4,287"/>
					<path class="st4" d="M9.4,349.1c-0.6,4.4,4,7.2,7,7.2c4,0,7-3.3,7-7.9c0-3.2-3.5-6.4-7-6.3S8.9,345.3,9.4,349.1"/>
					<path class="st4" d="M78.2,314.7c3.9,0,7.1-3.2,7.1-7.1c0-3.9-3.2-7.1-7.1-7.1c-3.9,0-7.1,3.2-7.1,7.1
						C71.1,311.5,74.2,314.7,78.2,314.7C78.2,314.7,78.2,314.7,78.2,314.7"/>
					<path class="st4" d="M9.4,412.6c-0.4,3.1,3.7,7.1,7.3,7c3.9,0,7-3.1,7-7c0-0.1,0-0.1,0-0.2c-0.2-3.9-3.4-6.9-7.2-6.9
						C12.6,405.7,9.6,408.8,9.4,412.6"/>
					<path class="st4" d="M128.8,308.6c-0.1-5.1-2.6-7.6-7.8-7.6c-3.2,0-6.2,3.6-6.2,7.4c0.2,3.8,3.4,6.7,7.2,6.7
						C125.7,315.2,128.7,312.3,128.8,308.6"/>
					<path class="st4" d="M9.4,433.6c0,3.5,3.6,6.9,7.3,6.9c3.9,0,7-3.1,7-7s-3.1-7-7-7C12.8,426.6,9.6,429.7,9.4,433.6"/>
					<path class="st4" d="M9.4,370.2c-0.8,3.4,3.5,7,7.2,6.9c3.7,0,6.8-3,6.8-6.8c0-0.1,0-0.2,0-0.3c0-3.8-3.1-6.9-6.9-6.9
						c-3.8-0.1-6.9,2.9-7,6.6C9.5,369.9,9.5,370.1,9.4,370.2"/>
					<path class="st4" d="M393.3,399c4.9,0,7-2.9,7.2-7.2c0-3.7-2.9-6.7-6.6-6.8c-0.1,0-0.2,0-0.4,0c-3.8,0-6.9,3-6.9,6.8
						c0,0.1,0,0.3,0,0.4C386.5,395.3,389.3,399.6,393.3,399"/>
					<path class="st4" d="M122.2,363.1c-3.9,0-7,3.2-7,7.1c0,3.8,3.2,6.9,7,6.9c4.3,0,6.9-2.6,7-6.9S126.6,363.2,122.2,363.1"/>
					<path class="st4" d="M57,300.8c-3.8-0.1-6.9,2.9-7,6.6c0,0.2,0,0.4,0,0.5c0.2,3.8,3.3,6.8,7.1,6.8c3.8-0.1,6.9-3.1,7.1-6.9
						C64.2,304,61.7,300.7,57,300.8"/>
					<path class="st4" d="M142.9,399c3.7,0.2,6.8-2.6,7-6.3c0-0.2,0-0.4,0-0.6c0-4.1-2.6-7.1-6.2-7.2c-5.3-0.1-7.6,3.6-7.7,6.9
						C135.9,395.7,139,398.9,142.9,399C142.9,399,142.9,399,142.9,399"/>
					<path class="st4" d="M222,392c-0.4,3.9,3.2,7.1,6.7,7c4.2-0.1,7.4-3,7.2-7c-0.2-3.8-2.5-7-7-7C225,385,221.9,387.7,222,392"/>
					<path class="st4" d="M95.8,370.2c0,4.3,2.6,6.9,6.8,6.9c3.8,0,7.5-3.5,7.4-7c-0.2-3.7-3.7-6.9-7.5-7.1
						C99.3,363,95.4,366.5,95.8,370.2"/>
					<path class="st4" d="M29.2,370.2c0,4.3,2.6,6.9,6.9,6.9c3.8,0.1,6.9-2.9,7-6.7c0-0.1,0-0.3,0-0.4c-0.1-3.8-3-7-8-6.9
						C32.2,363.1,29.1,366.8,29.2,370.2"/>
					<path class="st4" d="M208.1,363.1c-3.9,0-7,3.2-6.9,7.1c0,0.1,0,0.2,0,0.2c0,4.4,2.9,6.6,6.9,6.7c3.8,0.1,6.9-2.8,7.1-6.6
						c0-0.1,0-0.1,0-0.2c0.1-3.9-2.9-7.1-6.8-7.2C208.3,363.1,208.3,363.1,208.1,363.1"/>
					<path class="st4" d="M36.3,293.6c3.9,0,7.1-3.1,7.1-7c-0.2-3.9-3.4-7-7.4-7c-3.8,0.1-6.8,3.2-6.9,7
						C29.2,290.5,32.4,293.6,36.3,293.6C36.3,293.6,36.3,293.6,36.3,293.6"/>
					<path class="st4" d="M201.6,433.6c0,3.8,3,7,6.9,7c0,0,0.1,0,0.1,0c4.6,0.1,7.1-4,7-7.8c-0.5-3.6-3.5-6.2-7.1-6.2
						C204.3,426.7,201.6,429.3,201.6,433.6"/>
					<path class="st4" d="M134.9,307.8c0.1,3.9,3.3,7,7.3,6.9s7-3.3,6.9-7.3c-0.1-3.6-3.4-7-6.9-7
						C138.3,300.6,135,303.8,134.9,307.8"/>
					<path class="st4" d="M102.4,300.5c-3.7-0.1-7.3,3.3-7.2,7c0,3.9,3.1,7,7,7c3.9,0,7-3.1,7-7
						C109.2,303.7,106.2,300.6,102.4,300.5"/>
					<path class="st4" d="M122.6,399c4,0,6.6-2.8,6.6-7.1c0-4.4-2.6-6.9-7-6.9c-3.8,0-6.9,3.1-6.8,6.9c0,0,0,0,0,0.1
						C115.5,395.6,117.9,399.2,122.6,399"/>
					<path class="st4" d="M208.2,385c-4.1-0.2-7.1,3.6-7,7c-0.1,3.8,3,6.9,6.8,7c0.1,0,0.1,0,0.2,0c4.6-0.2,6.6-2.4,6.9-6.9
						c0.2-3.2-2.3-7.5-6.9-7"/>
					<path class="st4" d="M261.8,349.2c0,3.7,2.6,7.1,6.7,7c4.4-0.1,7-2.7,7.2-7.1c0.2-3.6-3.3-7-6.9-7.1c-3.8-0.1-7,3-7.1,6.8
						C261.8,349,261.8,349.1,261.8,349.2"/>
					<path class="st4" d="M288.5,377.1c3.8-0.1,6.9-3.1,7-6.9c0.1-3.9-2.9-7.2-6.8-7.3s-7.2,2.9-7.3,6.8c0,0.2,0,0.4,0,0.5
						c0,3.8,3,6.9,6.8,6.9C288.2,377.1,288.3,377.1,288.5,377.1"/>
					<path class="st4" d="M419.2,412.6c0.1-3.9-3-7.1-6.8-7.2c-0.1,0-0.1,0-0.2,0c-4.6,0-6.8,3.7-7,7c-0.3,4.9,4.2,7.1,7.2,7.1
						c3.7,0,6.7-3,6.7-6.7C419.1,412.7,419.1,412.6,419.2,412.6"/>
					<path class="st4" d="M372.3,399c4.6,0,7-2.9,7-7c0-3.9-3.2-7-7.1-6.9c-3.9,0-7,3.2-6.9,7.1C365.3,395.3,368.4,399.4,372.3,399"
						/>
					<path class="st4" d="M288.3,399c3.9,0.1,7.1-2.9,7.2-6.8c0-0.2,0-0.3,0-0.5c0-3.6-3.4-6.7-7.7-6.8c-3.4,0-6.3,3.2-6.3,7.1
						c-0.2,3.6,2.5,6.7,6.1,6.9C287.8,399,288,399,288.3,399"/>
					<path class="st4" d="M195.5,349.3c0-3.9-3.1-7-6.9-7.1s-7,3.1-7.1,6.9l0,0c0,3.9,3.2,7.1,7.1,7.1
						C192.3,356.2,195.4,353.1,195.5,349.3"/>
					<path class="st4" d="M288.8,440.5c4.4,0,6.6-3.1,6.9-7.1c0.3-3.8-3.1-6.9-7.1-6.9c-3.8,0-6.9,3-6.9,6.7c0,0,0,0.1,0,0.1
						C281.8,437.1,284.2,440.7,288.8,440.5"/>
					<path class="st4" d="M95.8,349.2c-0.3,4.3,3.4,7,6.9,7s7.1-3.5,7-7.1c-0.2-3.8-3.2-6.8-7-7c-3.8-0.1-6.9,3-7,6.8
						C95.8,349,95.8,349.1,95.8,349.2"/>
					<path class="st4" d="M262.2,433.5c-0.2,3.7,2.7,6.9,6.5,7.1c0.1,0,0.3,0,0.4,0c4.4,0.2,6.9-3.5,7-7s-3.4-7.2-7-7.1
						S261.5,429.9,262.2,433.5"/>
					<path class="st4" d="M56.9,426.6c-3.6-0.1-6.7,2.7-7,6.3c0.1,4.7,3,7.6,6.8,7.7c4.4,0.1,7.2-2.7,7.2-7.1
						C63.9,429.3,61.1,426.6,56.9,426.6"/>
					<path class="st4" d="M412.2,385c-3.9-0.1-7,3-7.1,6.9c-0.1,3.9,3,7,6.9,7.1l0,0c4.7,0.1,7-3,7.2-7
						C419.2,388.1,416,385,412.2,385"/>
					<path class="st4" d="M129.5,412.4c0-3.8-3-6.9-6.8-6.9c0,0-0.1,0-0.1,0c-4.2,0.2-7,2.8-7.1,7s3.2,7.2,7.5,7.1
						C126.8,419.5,129.5,416.4,129.5,412.4"/>
					<path class="st4" d="M128.8,286.2c0-3.8-3.2-7.1-6.8-6.9c-4.3,0.2-7,2.8-7.1,7c-0.1,4.8,4,7.1,7.2,7.2
						C125.9,293.5,128.8,290.2,128.8,286.2"/>
					<path class="st4" d="M301.9,391.8c-0.3,3.7,2.5,6.9,6.2,7.2c0.4,0,0.8,0,1.2,0c3.9-0.2,6.9-3.4,6.7-7.3s-3.4-6.9-7.3-6.7
						C305,385,301.9,388,301.9,391.8C301.9,391.8,301.9,391.8,301.9,391.8"/>
					<path class="st4" d="M29.2,329.4c0.1,3.9,3.2,7,7.1,7.1c4.2,0.1,6.9-2.8,6.9-7.2c-0.1-3.9-3.1-7-7-7.2
						C33,322.1,29.2,326,29.2,329.4"/>
					<path class="st4" d="M9.4,392.1c0.1,3.8,3.2,6.9,7,6.9c3.8,0,6.9-3,6.9-6.8c0,0,0-0.1,0-0.1c0-3.9-3-7-6.9-7.1c0,0-0.1,0-0.1,0
						c-3.8-0.1-6.9,2.8-7,6.6C9.4,391.8,9.4,391.9,9.4,392.1"/>
					<path class="st4" d="M29.2,391.8c0,4.5,2.8,7.2,7,7.2c3.9-0.1,6.9-3.3,6.8-7.1c-0.1-3.9-3.3-6.9-7.1-6.9
						c-3.6-0.1-6.6,2.8-6.7,6.4C29.1,391.5,29.1,391.6,29.2,391.8"/>
					<path class="st4" d="M129.5,433.5c0.2-3.6-2.5-6.7-6.2-6.9c-0.3,0-0.6,0-0.8,0c-3.8,0-7,3.1-7,6.9c0,4.1,3.3,7.1,7.8,7.1
						C126.7,440.6,129.5,437.3,129.5,433.5"/>
					<path class="st4" d="M150.3,412.6c0.2-3.8-2.8-6.9-6.5-7.1c-0.2,0-0.4,0-0.6,0c-4.3,0.2-6.6,2.1-6.8,7.2
						c-0.2,3.7,3.1,6.8,7,6.9C147.2,419.6,150.3,416.5,150.3,412.6C150.3,412.7,150.3,412.6,150.3,412.6"/>
					<path class="st4" d="M250.6,399c4.3-0.1,7.1-2.9,7.1-7c0-3.8-3.1-6.8-6.8-6.9c-3.8-0.2-7,2.7-7.2,6.5c0,0.1,0,0.2,0,0.4
						C243.6,395.7,246.7,398.9,250.6,399C250.6,399,250.6,399,250.6,399"/>
					<path class="st4" d="M261.8,392.2c-0.2,3.5,2.6,6.5,6.1,6.7c0.2,0,0.5,0,0.7,0c4.7-0.1,6.9-2.5,7.2-7c0.3-4.1-3.3-7.1-7.8-7
						C264.7,385,261.8,388.4,261.8,392.2"/>
					<path class="st4" d="M323.5,392.1c0,4.1,2.8,6.8,6.8,6.9c4.8,0.2,6.9-3.8,7-7c0.1-3.8-2.8-6.9-6.6-7c-0.1,0-0.2,0-0.2,0
						C326.2,385,323.5,387.8,323.5,392.1"/>
					<path class="st4" d="M142,336.5c3.9-0.1,7-3.2,7.1-7c-0.2-3.7-3.1-6.7-6.8-7.1c-4,0-7.3,3.1-7.6,7.1
						C134.6,332.8,138.4,336.4,142,336.5"/>
					<path class="st4" d="M36.2,426.6c-4.1-0.3-6.9,3.5-7,6.7c0,4,3.2,7.2,7.1,7.3c3.8,0.1,6.9-3,7-6.7c0-0.2,0-0.3,0-0.5
						C43.2,430,40.4,426.2,36.2,426.6"/>
					<path class="st4" d="M63.9,412.6c0.3-3.6-2.3-6.7-5.9-7.1c-0.2,0-0.4,0-0.7,0c-4.1,0-7.4,2.5-7.4,6.8c0.1,4.1,2.5,7,7.3,7.1
						c3.6,0.1,6.6-2.8,6.7-6.4C63.9,413,63.9,412.8,63.9,412.6"/>
					<path class="st4" d="M250.4,377.5c4.7,0,7-3.5,7-7.1c-0.2-3.8-3.3-6.9-7.1-6.9c-3.8,0.2-6.9,3.2-7.1,7c-0.1,3.8,3,7,6.8,7
						C250.2,377.5,250.3,377.5,250.4,377.5"/>
					<path class="st4" d="M95.8,392.2c0,3.7,3,6.8,6.7,6.8c0,0,0.1,0,0.1,0c3.9,0,7-3.1,7-7s-3.1-7-7-7
						C98.5,385,95.8,387.8,95.8,392.2"/>
					<path class="st4" d="M85.4,433.7c0.1-3.3-3.1-6.6-6.5-6.7c-3.9-0.2-7.2,2.7-7.4,6.6s2.7,7.2,6.6,7.4l0,0
						c3.8,0.3,7.1-2.5,7.4-6.3C85.5,434.3,85.5,434,85.4,433.7"/>
					<path class="st4" d="M208.6,419.5c3.9-0.1,7-3.2,7-7.1c-0.2-3.8-3.3-6.8-7.1-6.9c-3.6-0.2-6.7,2.7-6.9,6.3c0,0.2,0,0.5,0,0.7
						c-0.1,3.8,2.9,6.9,6.7,7C208.4,419.5,208.5,419.5,208.6,419.5"/>
					<path class="st4" d="M208.1,342.2c-3.8-0.1-6.9,3-6.9,6.7c0,0.1,0,0.2,0,0.3c0,3.3,3,7.1,6.9,7c3.9-0.1,7-3.2,7.1-7.1
						c0.1-3.7-2.8-6.9-6.5-7C208.5,342.2,208.3,342.2,208.1,342.2"/>
					<path class="st4" d="M188.7,385c-4.3,0.2-7.4,3.2-7.2,7.2c0.2,4.2,3.1,6.9,7.4,6.8c3.7-0.3,6.6-3.4,6.5-7.1
						C195.3,388.1,192.2,384.9,188.7,385"/>
					<path class="st4" d="M63.9,329.5c0-3.8-2.9-7.2-6.3-7c-5.2,0.2-7,1.9-7.5,6.9c-0.4,3.7,3.2,7.2,6.9,7.2c3.8,0.1,6.9-3,7-6.8
						C64,329.7,64,329.6,63.9,329.5"/>
					<path class="st4" d="M150,370.1c0-3.9-3.1-7-7-7c-3.8,0.1-6.9,3.1-7,6.9c0,3.9,3.1,7,7,7c0.1,0,0.1,0,0.2,0
						c3.7,0,6.7-2.9,6.8-6.6C150,370.3,150,370.2,150,370.1"/>
					<path class="st4" d="M268.7,363.1c-3.9,0-7,3.2-6.9,7.1c0,0,0,0,0,0c-0.2,3.7,2.7,6.7,6.3,6.9c0.2,0,0.3,0,0.5,0
						c3.9,0,7-3.1,7-7C275.7,366.3,272.6,363.1,268.7,363.1"/>
					<path class="st4" d="M195.5,370.2c0.1-3.8-2.9-7-6.8-7.1c-0.1,0-0.2,0-0.3,0c-4,0.1-7,3.2-6.9,7.6c0.3,3.7,3.4,6.5,7.1,6.4
						c3.7,0.1,6.8-2.8,6.9-6.6C195.5,370.4,195.5,370.3,195.5,370.2"/>
					<path class="st4" d="M150.3,433.5c0-3.9-3.2-7-7.1-6.9s-7,3.2-6.9,7.1s3.2,7,7.1,6.9S150.4,437.4,150.3,433.5"/>
					<path class="st4" d="M129.3,329.2c-0.2-4.2-3.4-7-7.8-6.8c-3,0.1-6.4,3.9-6.2,7c0.2,4,3.6,7.3,7.3,7.1
						C126.4,336.3,129.4,333.1,129.3,329.2"/>
					<path class="st4" d="M85.8,412.4c0-3.8-3.1-6.9-6.9-7c-3.9,0.2-7,3.4-7,7.4c0,3.9,3.6,6.7,7.3,6.9
						C82.7,419.9,85.9,416.3,85.8,412.4"/>
					<path class="st4" d="M129.2,349.4c0.2-4.8-3.1-7.1-6.9-7.3s-7.1,3.4-7.1,7.1s3.5,7.1,7,7.1c3.8,0.1,6.9-3,7-6.8
						C129.2,349.5,129.2,349.4,129.2,349.4"/>
					<path class="st4" d="M302,412.5c-0.2,3.7,2.6,6.8,6.3,7c0.2,0,0.4,0,0.6,0c3.8,0,6.9-3,7-6.9c0-3.9-3.1-7.2-7.1-7.2
						c-0.1,0-0.1,0-0.2,0C305.7,405.4,301.7,408.2,302,412.5"/>
					<path class="st4" d="M85.1,329.3c0.5-3.1-2.8-7-6.9-7c-3.9,0.1-7,3.3-7,7.2c-0.1,3.4,3.2,7.1,6.6,7
						C82.1,336.4,85.4,333.5,85.1,329.3"/>
					<path class="st4" d="M85.1,370.4c0.5-3.8-3.8-7-7.1-7c-3.6,0.3-6.5,3.1-6.9,6.8c-0.2,3.8,2.7,7,6.5,7.2c0.2,0,0.5,0,0.7,0
						C82.4,377.5,85.1,374.7,85.1,370.4"/>
					<path class="st4" d="M244,412.7c0.2,3.9,3.5,7,7.4,7c3.6-0.2,7-3.8,6.7-7.3c-0.3-3.9-3.7-7.1-7.3-6.9S243.8,409.3,244,412.7"/>
					<path class="st4" d="M103,405.4c-3.9,0.2-6.9,3.3-7.1,7.1c0.1,3.9,3.2,7,7.1,7c3.9-0.2,6.9-3.3,7-7.2
						C109.8,408.6,106.7,405.6,103,405.4"/>
					<path class="st4" d="M365.5,433.5c-0.2,3.7,2.7,6.8,6.8,7c4.2,0.2,6.7-2.6,7.1-7c0.3-3.5-2.9-6.6-6.7-7
						c-3.7-0.2-6.9,2.6-7.1,6.3C365.4,433,365.4,433.2,365.5,433.5"/>
					<path class="st4" d="M63.6,370c0.2-3.6-2.5-6.7-6.1-6.9c-0.2,0-0.5,0-0.7,0c-4,0-6.9,2.9-6.8,7c0,4.4,2.8,7,7.3,6.9
						C61,377.1,63.6,374.2,63.6,370"/>
					<path class="st4" d="M29.2,349.1c-0.2,4.4,3.5,7,6.9,7.2s7-3.5,7-7.1c-0.2-3.8-3.2-6.9-7.1-7.1
						C32.2,342.1,29.1,345.3,29.2,349.1"/>
					<path class="st4" d="M387.3,412.7c0,3.9,3.1,7,7,7c3.8-0.1,6.9-3.2,7-7c0-3.9-3.2-7.1-7.1-7.1c0,0-0.1,0-0.1,0
						C390.2,405.7,387.2,408.9,387.3,412.7"/>
					<path class="st4" d="M257.5,433.7c-0.2-4.5-2.5-6.3-6.8-6.7c-3.8-0.3-7.2,3.2-7.2,7.1c0.1,3.9,3.3,6.9,7.2,6.8c0,0,0,0,0.1,0
						C254.8,440.9,257.5,437.9,257.5,433.7"/>
					<path class="st4" d="M222,349.1c-0.1,3.9,3,7.1,6.8,7.2c0,0,0,0,0,0c3.9-0.2,6.9-3.3,7.1-7.1c-0.1-3.9-3.3-7-7.1-7
						c-3.7-0.1-6.7,2.8-6.8,6.5C222,348.8,222,348.9,222,349.1"/>
					<path class="st4" d="M181.9,412.7c0.1,3.8,3.2,6.9,7,6.9c3.5,0,7-3.5,7-6.9c0-3.9-3.1-7-7-7S181.9,408.8,181.9,412.7"/>
					<path class="st4" d="M262.2,412.6c0,3.9,3.1,7,7,7l0,0c2.9,0,7.1-2.8,6.9-7.2c-0.3-3.8-3.3-6.8-7.1-7
						C265.1,405.5,262,408.7,262.2,412.6C262.1,412.5,262.1,412.5,262.2,412.6"/>
					<path class="st4" d="M229.1,426.6c-3.8,0-6.9,3-7.1,6.7c-0.2,4,3.4,7.3,7.5,7.2s6.6-3.1,6.6-6.8
						C236.1,429.8,233.7,426.6,229.1,426.6"/>
					<path class="st4" d="M372.3,419.4c3.9,0,7-3.1,7.1-6.9c0-3.9-3.1-7-6.9-7.1c-3.9,0-7,3.1-7.1,6.9c0,0.1,0,0.2,0,0.3
						c-0.1,3.6,2.7,6.6,6.3,6.7C371.9,419.4,372.1,419.4,372.3,419.4"/>
					<path class="st4" d="M222,370.3c-0.1,3.7,2.9,6.8,6.6,6.8c0.1,0,0.3,0,0.4,0c4.5,0,6.6-3.1,6.9-6.9c0.3-3.6-3.2-7-6.7-7
						c-3.7-0.2-7,2.6-7.2,6.3C222,369.8,222,370,222,370.3"/>
					<path class="st4" d="M250.2,342.3c-3.7-0.5-6.9,3.3-6.9,6.9c0.2,3.9,3.3,6.9,7.2,7.1c3.8-0.1,6.8-3.2,6.7-6.9
						C257.1,344.9,254.6,342.4,250.2,342.3"/>
					<path class="st4" d="M96.2,433.7c-0.2,3.6,2.5,6.6,6.1,6.8c0.2,0,0.5,0,0.7,0c3.8,0,6.8-3.1,6.8-6.9c0-0.1,0-0.2,0-0.3
						c0.2-3.6-2.6-6.7-6.3-6.9c-0.2,0-0.5,0-0.7,0C98.7,426.6,96.2,429.4,96.2,433.7"/>
					<path class="st4" d="M323.8,412.6c-0.3,4.2,3.6,7.1,6.8,7c4.7-0.2,6.7-2.5,7-7.1c0.3-3.7-3.2-7-6.9-7c-3.8,0-6.9,3-7,6.8
						C323.8,412.4,323.8,412.5,323.8,412.6"/>
					<path class="st4" d="M50,392.2c-0.1,3.6,2.8,6.7,6.4,6.8c0.2,0,0.4,0,0.6,0c4,0,6.8-3,6.8-7.2c0-3.8-3.2-6.9-7-6.9c0,0,0,0,0,0
						C53.2,384.8,49.6,388.6,50,392.2"/>
					<path class="st4" d="M71.8,392.2c-0.1,3.7,2.9,6.7,6.5,6.8c0.1,0,0.2,0,0.3,0c3.9-0.1,7-3.3,6.9-7.3c0,0,0,0,0-0.1
						c-0.2-3.7-3.2-6.6-6.9-6.7C74.4,385.1,71.8,387.8,71.8,392.2"/>
					<path class="st4" d="M295.5,412.6c0-5-2.8-6.7-6.6-7c-3.8-0.2-7,2.6-7.2,6.4c0,0.3,0,0.5,0,0.8c0.3,3.7,2.3,6.8,7.2,6.7
						c3.6,0.1,6.6-2.8,6.6-6.3C295.5,412.9,295.5,412.8,295.5,412.6"/>
					<path class="st4" d="M36.2,405.5c-3.7,0.1-7,3.5-6.9,7.1c0.1,4,3.4,7.1,7.4,7c3.5-0.2,6.8-3.6,6.8-7
						C43.3,408.7,40.1,405.5,36.2,405.5"/>
					<path class="st4" d="M188.8,426.6c-3.7,0-6.8,3-6.9,6.8c0,3.5,2.6,7.3,6.8,7.2c3.9,0,7-3.1,7-7
						C195.8,429.7,192.6,426.6,188.8,426.6"/>
					<path class="st4" d="M281.5,349.2c-0.3,4.3,3.8,6.9,6.9,7c3.9-0.2,7-3.3,7.1-7.1c-0.1-3.7-3.2-6.7-6.9-6.9
						c-3.7-0.2-6.8,2.5-7.1,6.2C281.5,348.7,281.5,349,281.5,349.2"/>
					<path class="st4" d="M229.1,419.4c4,0,7.4-3,7.1-6.9s-2.7-6.8-7-7c-3.8-0.2-7.3,3.5-7.1,7.5
						C222.3,416.3,225.5,419.7,229.1,419.4"/>
					<path class="st4" d="M150,349c0.1-3.8-2.9-6.9-6.7-7c-3.9-0.2-7.2,2.8-7.4,6.7c-0.2,3.9,2.8,7.2,6.7,7.4c0.2,0,0.3,0,0.5,0
						C147,356.1,150,352.9,150,349"/>
					<path class="st4" d="M85.4,349.1c0.2-3.7-2.6-6.8-6.2-7c-0.2,0-0.4,0-0.7,0c-3.9,0-7,3.2-7,7c0,3.9,3.2,7,7,7
						C82.5,356.1,85.9,353.1,85.4,349.1"/>
					<path class="st4" d="M109.1,329.6c-0.2-4.6-3.2-7.5-7.5-7.2c-3.6,0.2-6.7,3.8-6.5,7.5c0.2,3.4,3.6,6.5,7.2,6.4
						C106.4,336.2,109.2,333.4,109.1,329.6"/>
					<path class="st4" d="M323.5,434.2c0,3.7,2.6,6.8,7.2,6.8c3.8,0,6.5-3,6.5-7.4c0-3.8-3.5-6.4-7-6.5
						C326.3,426.8,323.4,430,323.5,434.2"/>
					<path class="st4" d="M301.9,433.7c0,3.8,3.1,6.9,7,6.9c0.1,0,0.1,0,0.2,0c3.7-0.2,6.6-3.1,6.8-6.8c0.1-3.9-2.9-7.1-6.8-7.2
						c-0.1,0-0.1,0-0.2,0c-3.7-0.1-6.8,2.9-6.9,6.6C302,433.4,302,433.5,301.9,433.7"/>
					<path class="st4" d="M63.6,349.1c0.6-3.4-3-7-6.6-7c-3.8-0.1-6.9,2.9-7,6.7c0,0.1,0,0.3,0,0.4c-0.1,3.8,2.8,6.9,6.6,7.1
						c0.1,0,0.3,0,0.4,0C59.9,356.2,64.1,353.3,63.6,349.1"/>
					<path class="st4" d="M426.7,434c0,3.7,3.3,6.9,7.3,6.9c3.5,0,6.6-3.3,6.7-7.1c0-3.3-3.1-6.8-6-6.8
						C429.6,427.1,426.6,429.6,426.7,434"/>
					<path class="st4" d="M412.3,440.5c3.8-0.2,6.8-3.2,6.9-7c0-3.8-3-7-6.5-6.9c-4.2,0-7.7,3-7.4,6.7
						C405.5,437.5,407.9,440.4,412.3,440.5"/>
					<path class="st4" d="M386.9,434.1c-0.1,3.7,2.9,6.7,6.5,6.8c0.2,0,0.3,0,0.5,0c3.7,0,6.8-3,7-6.7c0-3.5-3.6-7.5-7.8-7.2
						C390.1,427.2,386.9,430.6,386.9,434.1"/>
				</g>
			</g>
		</g>
	</g>
</g>
</svg>
