<svg id="Layer_1" data-name="Layer 1" xmlns="http://www.w3.org/2000/svg" xmlns:xlink="http://www.w3.org/1999/xlink" viewBox="0 0 450 450"><defs><style>.cls-1{fill:none;}.cls-2{fill:#5e5e5e;opacity:0.68;}.cls-3{clip-path:url(#clip-path);}.cls-4{opacity:0.05;}.cls-5{clip-path:url(#clip-path-2);}.cls-6{fill:#fff;}</style><clipPath id="clip-path"><rect class="cls-1" y="147.09" width="450" height="302.91"/></clipPath><clipPath id="clip-path-2"><rect class="cls-1" x="9.35" y="278.89" width="431.3" height="162.07"/></clipPath></defs><title>text_bg-02</title><rect class="cls-2" width="450" height="450"/><g class="cls-3"><g class="cls-4"><g class="cls-5"><path class="cls-6" d="M162.51,278.89a20.74,20.74,0,0,0-3.55,2.92,6.82,6.82,0,0,0,1,9.6l.12.1a7.55,7.55,0,0,0,10.5-1.58c2.15-2.83,1.35-7.4-1.68-9.73-.5-.39-.94-.87-1.41-1.31Z"/><path class="cls-6" d="M75.76,278.89c-.6.48-1.18,1-1.8,1.44a6.79,6.79,0,0,0-2.53,7.6,7,7,0,0,0,6.8,5.1,7.13,7.13,0,0,0,6.6-4.64c1.19-3.41.07-6.37-3.37-8.94-.24-.17-.46-.37-.68-.56Z"/><path class="cls-6" d="M55,278.89a13.62,13.62,0,0,0-4.45,4.26c-1.78,3,1,8.69,4.2,9.49A7.85,7.85,0,0,0,63,290c1.41-2,1.52-5.93-.1-8.54A14.41,14.41,0,0,0,60,278.89Z"/><path class="cls-6" d="M99.78,278.89c-1.87,1.47-3.71,2.81-4.42,5.38-1.24,4.47,2.59,8.42,6.17,8.6s6.31-1.49,7.3-4.44a7.29,7.29,0,0,0-3-8.61,8.59,8.59,0,0,1-1.07-.93Z"/><path class="cls-6" d="M139.92,278.89c-1.78,1.12-3.45,2.29-4.34,4.35a7,7,0,0,0,3.45,9.05c3.85,1.65,7.93.09,9.39-3.61a6.86,6.86,0,0,0-2.62-8.75c-.43-.3-.81-.69-1.22-1Z"/><path class="cls-6" d="M164.62,300.76c-4.49,0-7.17,2.71-7.13,7.12a7.17,7.17,0,1,0,14.34-.25c-.12-4.2-2.91-6.9-7.21-6.87"/><path class="cls-6" d="M171.82,329.47c.09-4.36-3.48-7-7.39-7.11s-6.92,3.31-6.94,7.22a7,7,0,0,0,7,7h.12a7.06,7.06,0,0,0,7.21-6.91v-.18"/><path class="cls-6" d="M157.49,370.73a6.92,6.92,0,0,0,6.89,6.95h.23a7.09,7.09,0,1,0,0-14.18h0a7.11,7.11,0,0,0-7.08,7.14v.09"/><path class="cls-6" d="M165.3,419.49a6.81,6.81,0,0,0,7.22-6.38c0-.13,0-.26,0-.39a7.17,7.17,0,0,0-14.32-.49c-.08,4.24,2.76,7.15,7.09,7.26"/><path class="cls-6" d="M358.58,433.39c.26-4.27-3-7-8.17-6.91-3,.07-6.25,3.81-6,7.32a7.43,7.43,0,0,0,7.4,6.79c4.16-.15,6.81-2.81,6.81-7.2"/><path class="cls-6" d="M358.58,412.39c.46-3.36-2.68-6.74-7.1-6.86a7.24,7.24,0,0,0-7.2,7.12,7.46,7.46,0,0,0,7,7.05,7,7,0,0,0,7.31-6.68q0-.31,0-.63"/><path class="cls-6" d="M351.75,399a7,7,0,0,0-.16-14h0c-4.11,0-7.44,3.07-7.24,7,.18,3.74,2.39,7,7.4,7"/><path class="cls-6" d="M157.85,434.07c0,4.14,2.8,6.86,7.06,6.84a7,7,0,0,0,7.26-6.73v-.11a7.27,7.27,0,0,0-7.4-7.14h0a7,7,0,0,0-6.91,7.09v.05"/><path class="cls-6" d="M165,385a7,7,0,0,0,0,14c4.3,0,7.18-2.78,7.19-7a6.88,6.88,0,0,0-6.75-7H165"/><path class="cls-6" d="M172.18,349.28c0-4.21-2.8-7.11-6.85-7.1-4.33,0-7.47,2.95-7.44,7a7.52,7.52,0,0,0,7.16,7.12,7,7,0,0,0,7.13-6.87v-.13"/><path class="cls-6" d="M9.45,329.35c0,3.64,3.42,7.24,7.1,7.12,4.33-.15,7.21-2.57,7.21-6.35,0-5.57-2.62-7.25-7.24-7.74-3.37-.35-7.07,3.53-7.07,7"/><path class="cls-6" d="M9.45,307.75c0,3.53,3.67,7,7.27,7a7,7,0,0,0,7.06-6.94v-.06c0-3.88-3.39-7.4-7.17-7.19-4.23.23-7.33,3.68-7.16,7.22"/><path class="cls-6" d="M42.79,308.78c-.09-5.35-2.73-7.8-8.44-7.86-2.41,0-5.6,4.2-5.54,7.33A7,7,0,0,0,36,315.09h.09c3.79-.06,6.79-2.88,6.74-6.31"/><path class="cls-6" d="M9.44,287c0,3.47,3.45,6.64,7.22,6.63a7,7,0,0,0,7.11-6.89v-.29a7.13,7.13,0,0,0-6.94-6.83c-3.83-.2-7.93,4-7.39,7.38"/><path class="cls-6" d="M9.44,349.07c-.57,4.37,4,7.21,7,7.22,4,0,7-3.31,7-7.91,0-3.17-3.51-6.37-7-6.33s-7.56,3.2-7,7"/><path class="cls-6" d="M78.25,314.73a7.1,7.1,0,1,0-.09,0h.09"/><path class="cls-6" d="M9.45,412.62c-.35,3.08,3.72,7.09,7.28,7a7,7,0,0,0,7-7v-.21a7.23,7.23,0,0,0-7.24-6.92,7.52,7.52,0,0,0-7.08,7.15"/><path class="cls-6" d="M128.81,308.64c-.07-5.12-2.63-7.62-7.8-7.58-3.18,0-6.25,3.65-6.21,7.35a7.09,7.09,0,0,0,7.21,6.68,6.63,6.63,0,0,0,6.8-6.45"/><path class="cls-6" d="M9.45,433.65c0,3.53,3.63,6.94,7.29,6.9a7,7,0,1,0,0-14,7.32,7.32,0,0,0-7.28,7.07"/><path class="cls-6" d="M9.44,370.21c-.79,3.4,3.49,7,7.21,6.91a6.78,6.78,0,0,0,6.78-6.76c0-.11,0-.21,0-.31a7,7,0,0,0-6.94-6.92,6.82,6.82,0,0,0-7,6.63,3.38,3.38,0,0,0,0,.45"/><path class="cls-6" d="M393.27,399c4.86,0,7-2.94,7.2-7.2a6.72,6.72,0,0,0-6.63-6.79h-.37a6.88,6.88,0,0,0-6.94,6.84c0,.15,0,.29,0,.44,0,3,2.79,7.34,6.74,6.7"/><path class="cls-6" d="M122.24,363.13a7,7,0,1,0,0,14c4.3,0,6.94-2.6,7-6.87s-2.59-7.09-6.93-7.11"/><path class="cls-6" d="M57,300.76a6.82,6.82,0,0,0-7,6.63c0,.18,0,.35,0,.53a7.19,7.19,0,0,0,7.12,6.83,7.29,7.29,0,0,0,7.12-6.93,6.75,6.75,0,0,0-7.2-7.06"/><path class="cls-6" d="M142.92,399a6.64,6.64,0,0,0,7-6.27,4,4,0,0,0,0-.6c0-4.15-2.6-7.08-6.24-7.17-5.28-.15-7.6,3.63-7.7,6.91a7,7,0,0,0,6.87,7.13h0"/><path class="cls-6" d="M222,392c-.4,3.88,3.2,7.12,6.68,7,4.19-.09,7.4-3,7.2-7-.19-3.77-2.51-7-7-7a6.55,6.55,0,0,0-6.86,7"/><path class="cls-6" d="M95.83,370.19c0,4.33,2.57,6.92,6.82,6.92,3.85,0,7.54-3.47,7.41-6.95-.15-3.69-3.74-6.93-7.5-7.06-3.27-.12-7.14,3.42-6.73,7.09"/><path class="cls-6" d="M29.16,370.21c0,4.26,2.65,6.89,6.92,6.9a6.88,6.88,0,0,0,7-6.73c0-.15,0-.3,0-.45-.13-3.75-3-7-8-6.86-2.86.06-5.94,3.69-5.93,7.14"/><path class="cls-6" d="M208.15,363.13a7,7,0,0,0-6.94,7.06c0,.08,0,.15,0,.23,0,4.35,2.87,6.61,6.9,6.67a6.84,6.84,0,0,0,7.07-6.61v-.16a7,7,0,0,0-6.81-7.19h-.19"/><path class="cls-6" d="M36.31,293.59a7.09,7.09,0,0,0,7.13-7,7.29,7.29,0,0,0-7.37-7,7.17,7.17,0,0,0-6.89,7.05,7,7,0,0,0,7.08,6.92h.05"/><path class="cls-6" d="M201.58,433.56a6.94,6.94,0,0,0,6.88,7h.12c4.57.09,7.15-4,7-7.79a7.14,7.14,0,0,0-7.08-6.23c-4.18.13-6.92,2.81-6.92,7"/><path class="cls-6" d="M134.93,307.78a7.11,7.11,0,1,0,14.22-.33c-.1-3.59-3.44-7-6.9-7a7.54,7.54,0,0,0-7.32,7.32"/><path class="cls-6" d="M102.37,300.5c-3.7-.07-7.28,3.3-7.21,7a7,7,0,1,0,7.21-7"/><path class="cls-6" d="M122.56,399c4,0,6.63-2.83,6.61-7.07,0-4.44-2.57-6.93-7-6.9a6.88,6.88,0,0,0-6.84,6.94V392c.17,3.58,2.59,7.13,7.27,7"/><path class="cls-6" d="M208.19,385c-4.09-.24-7.05,3.59-7,7a6.89,6.89,0,0,0,6.78,7h.22c4.57-.19,6.59-2.38,6.91-6.9.23-3.19-2.3-7.5-6.94-7"/><path class="cls-6" d="M261.8,349.25c0,3.66,2.65,7.14,6.72,7,4.36-.14,7-2.74,7.21-7.1.2-3.62-3.28-7-6.88-7.12a6.91,6.91,0,0,0-7.05,6.78,3.08,3.08,0,0,0,0,.43"/><path class="cls-6" d="M288.46,377.11a7.11,7.11,0,1,0-7.13-7.42,4.69,4.69,0,0,0,0,.53,6.85,6.85,0,0,0,6.78,6.9h.33"/><path class="cls-6" d="M419.16,412.6a7,7,0,0,0-6.84-7.16h-.16c-4.58,0-6.82,3.73-7,7-.26,4.9,4.18,7.11,7.25,7.07a6.73,6.73,0,0,0,6.73-6.75v-.2"/><path class="cls-6" d="M372.33,399c4.56,0,7-2.89,7-7a7,7,0,1,0-14,.16c-.05,3.14,3.07,7.24,7,6.84"/><path class="cls-6" d="M288.26,399a7,7,0,0,0,7.21-6.78,3.84,3.84,0,0,0,0-.48c0-3.65-3.44-6.72-7.66-6.76-3.43,0-6.27,3.17-6.3,7.09a6.5,6.5,0,0,0,6.05,6.92,5.45,5.45,0,0,0,.7,0"/><path class="cls-6" d="M195.48,349.27a7,7,0,1,0-14-.11h0a7.2,7.2,0,0,0,7.05,7.13,7.11,7.11,0,0,0,6.92-7"/><path class="cls-6" d="M288.79,440.55c4.37,0,6.65-3.06,6.92-7.08.26-3.77-3.12-6.88-7.15-6.9a6.84,6.84,0,0,0-6.93,6.75v.14c.17,3.6,2.6,7.26,7.16,7.09"/><path class="cls-6" d="M95.83,349.19c-.28,4.31,3.36,7,6.93,7.05a7.41,7.41,0,0,0,7-7.15,7.31,7.31,0,0,0-7-7,6.89,6.89,0,0,0-7,6.77c0,.13,0,.25,0,.38"/><path class="cls-6" d="M262.16,433.51a6.77,6.77,0,0,0,6.48,7.06H269c4.43.16,6.87-3.45,7-7s-3.41-7.2-7-7.12-7.49,3.48-6.94,7"/><path class="cls-6" d="M56.91,426.58a6.8,6.8,0,0,0-7,6.28c.06,4.74,3,7.58,6.79,7.67,4.36.1,7.16-2.73,7.19-7.08,0-4.14-2.78-6.88-7-6.87"/><path class="cls-6" d="M412.16,385a7,7,0,0,0-.21,14h0c4.7.1,7-3,7.23-7a7,7,0,0,0-7-7"/><path class="cls-6" d="M129.53,412.4a6.88,6.88,0,0,0-6.81-6.93h-.08c-4.24.22-7,2.81-7.06,7s3.21,7.19,7.49,7.11c3.68-.06,6.46-3.14,6.46-7.16"/><path class="cls-6" d="M128.81,286.22c0-3.75-3.15-7.08-6.8-6.89-4.3.22-7,2.84-7.1,7a7,7,0,0,0,7.18,7.16c3.84,0,6.76-3.24,6.72-7.31"/><path class="cls-6" d="M301.94,391.81a6.73,6.73,0,0,0,6.21,7.2,6.65,6.65,0,0,0,1.18,0,7,7,0,1,0-.63-14,6.77,6.77,0,0,0-6.76,6.78v0"/><path class="cls-6" d="M29.2,329.43a7.19,7.19,0,0,0,7.07,7.08c4.2.06,6.89-2.75,6.87-7.17a7.33,7.33,0,0,0-7-7.21c-3.14-.07-6.93,3.92-6.92,7.3"/><path class="cls-6" d="M9.44,392.08a7,7,0,0,0,7,6.89,6.86,6.86,0,0,0,6.94-6.78v-.1A7,7,0,0,0,16.47,385h-.09a6.8,6.8,0,0,0-7,6.59,4,4,0,0,0,0,.49"/><path class="cls-6" d="M29.16,391.79c0,4.5,2.85,7.2,7,7.18a7,7,0,0,0-.3-14,6.55,6.55,0,0,0-6.73,6.38c0,.14,0,.27,0,.41"/><path class="cls-6" d="M129.53,433.51a6.56,6.56,0,0,0-6.16-6.93,5.89,5.89,0,0,0-.84,0,7,7,0,0,0-7,6.94c0,4.07,3.34,7.13,7.82,7.09,3.3,0,6.16-3.33,6.15-7.1"/><path class="cls-6" d="M150.32,412.63a6.82,6.82,0,0,0-6.53-7.1h-.57c-4.33.24-6.61,2.14-6.83,7.19-.16,3.66,3.15,6.77,7,6.85a6.9,6.9,0,0,0,6.9-6.9v0"/><path class="cls-6" d="M250.63,399c4.3-.09,7.07-2.85,7.14-7.05a7,7,0,0,0-6.83-6.93,6.85,6.85,0,0,0-7.21,6.47c0,.12,0,.24,0,.36a7,7,0,0,0,6.85,7.15h.06"/><path class="cls-6" d="M261.8,392.24a6.37,6.37,0,0,0,6.07,6.67h.68c4.73-.1,6.87-2.46,7.16-7,.27-4.09-3.26-7.09-7.76-7-3.27,0-6.17,3.48-6.15,7.3"/><path class="cls-6" d="M323.45,392.07c0,4.12,2.77,6.78,6.83,6.93,4.77.19,6.89-3.81,7-6.95a6.83,6.83,0,0,0-6.59-7.05h-.23c-4.27,0-7,2.76-7,7.07"/><path class="cls-6" d="M142,336.5a7.3,7.3,0,0,0,7.14-7.05,7.52,7.52,0,0,0-6.77-7.12,7.63,7.63,0,0,0-7.6,7.11c-.15,3.33,3.61,7,7.23,7.06"/><path class="cls-6" d="M36.25,426.58c-4.07-.31-6.9,3.54-7,6.7a7.25,7.25,0,0,0,7.13,7.26,6.88,6.88,0,0,0,7-6.75c0-.16,0-.33,0-.49-.21-3.35-3-7.07-7.18-6.72"/><path class="cls-6" d="M63.93,412.62A6.52,6.52,0,0,0,58,405.56c-.22,0-.44,0-.66,0-4.06,0-7.44,2.54-7.36,6.82.07,4.08,2.5,7,7.29,7.12a6.52,6.52,0,0,0,6.68-6.36c0-.17,0-.33,0-.5"/><path class="cls-6" d="M250.45,377.47c4.68,0,7-3.49,7-7.08a7.21,7.21,0,0,0-7.15-6.9,7.4,7.4,0,0,0-7.06,7,6.92,6.92,0,0,0,6.81,7h.42"/><path class="cls-6" d="M95.83,392.2a6.74,6.74,0,0,0,6.71,6.77h.11a7,7,0,0,0,.06-14c-4.18,0-6.88,2.8-6.88,7.2"/><path class="cls-6" d="M85.45,433.67c.13-3.33-3.07-6.62-6.54-6.73a7,7,0,1,0-.89,14h0a6.9,6.9,0,0,0,7.42-6.34,7.22,7.22,0,0,0,0-.93"/><path class="cls-6" d="M208.55,419.5a7.12,7.12,0,0,0,7-7.1,7.26,7.26,0,0,0-7.07-6.91,6.61,6.61,0,0,0-6.91,6.3c0,.23,0,.47,0,.7a6.83,6.83,0,0,0,6.66,7h.34"/><path class="cls-6" d="M208.14,342.24A6.83,6.83,0,0,0,201.2,349v.33c0,3.34,3,7.1,6.89,7a7.21,7.21,0,0,0,7.1-7.09,6.76,6.76,0,0,0-6.53-7,4.51,4.51,0,0,0-.52,0"/><path class="cls-6" d="M188.72,385c-4.28.16-7.37,3.21-7.19,7.23.18,4.23,3.11,6.92,7.44,6.76a7,7,0,0,0,6.51-7.14c-.15-3.8-3.28-7-6.76-6.85"/><path class="cls-6" d="M63.93,329.48c0-3.84-2.88-7.2-6.31-7.05-5.19.24-7,1.94-7.51,6.92-.39,3.74,3.2,7.25,6.86,7.2a6.89,6.89,0,0,0,7-6.78v-.29"/><path class="cls-6" d="M150,370.14a7,7,0,0,0-7-7,7.09,7.09,0,0,0-7,6.93,7,7,0,0,0,7,7h.17a6.71,6.71,0,0,0,6.8-6.62c0-.13,0-.25,0-.38"/><path class="cls-6" d="M268.74,363.13a7,7,0,0,0-6.94,7.06h0a6.63,6.63,0,0,0,6.32,6.91h.52a7,7,0,1,0,.1-14"/><path class="cls-6" d="M195.48,370.24a6.94,6.94,0,0,0-6.78-7.1h-.32c-4,.06-7,3.24-6.91,7.57a7,7,0,0,0,7.08,6.4,6.75,6.75,0,0,0,6.93-6.57v-.3"/><path class="cls-6" d="M150.32,433.51a7,7,0,1,0-6.93,7.07,7,7,0,0,0,6.93-7.07"/><path class="cls-6" d="M129.32,329.19c-.18-4.16-3.44-7-7.83-6.78-3,.14-6.37,3.89-6.23,7,.18,4,3.6,7.31,7.28,7.13a7.18,7.18,0,0,0,6.78-7.37"/><path class="cls-6" d="M85.8,412.39a7,7,0,0,0-6.92-6.95,7.34,7.34,0,0,0-7,7.36c0,3.91,3.62,6.69,7.33,6.92,3.5.22,6.64-3.44,6.64-7.33"/><path class="cls-6" d="M129.17,349.4c.16-4.76-3.08-7.13-6.86-7.28s-7.13,3.4-7.11,7.08a7.43,7.43,0,0,0,7,7.06,6.88,6.88,0,0,0,7-6.76v-.1"/><path class="cls-6" d="M302,412.47a6.65,6.65,0,0,0,6.26,7h.65a7,7,0,0,0,7-6.86,7.14,7.14,0,0,0-7.09-7.19h-.22c-2.87,0-6.94,2.76-6.62,7"/><path class="cls-6" d="M85.08,329.33c.46-3.11-2.75-7-6.87-7a7.24,7.24,0,0,0-7,7.16c-.06,3.43,3.23,7.14,6.56,7.05,4.36-.12,7.65-3.08,7.36-7.25"/><path class="cls-6" d="M85.08,370.43c.52-3.81-3.76-7-7.07-6.95a7.44,7.44,0,0,0-6.86,6.77,6.85,6.85,0,0,0,6.46,7.22h.69c4.13,0,6.79-2.77,6.78-7"/><path class="cls-6" d="M244,412.67a7.35,7.35,0,0,0,7.44,6.95c3.63-.19,7-3.81,6.71-7.31-.27-3.86-3.68-7.06-7.32-6.87s-7,3.81-6.83,7.23"/><path class="cls-6" d="M103,405.44a7.45,7.45,0,0,0-7.1,7.14,7.1,7.1,0,0,0,7.14,7,7.35,7.35,0,0,0,7-7.16,7.51,7.51,0,0,0-7.08-7"/><path class="cls-6" d="M365.45,433.51c-.25,3.71,2.71,6.79,6.75,7,4.25.24,6.71-2.6,7.13-7,.32-3.46-2.86-6.62-6.73-7a6.74,6.74,0,0,0-7.14,6.31c0,.21,0,.41,0,.62"/><path class="cls-6" d="M63.57,370.05a6.5,6.5,0,0,0-6.08-6.91,5.3,5.3,0,0,0-.69,0,6.63,6.63,0,0,0-6.85,7c0,4.36,2.76,7,7.29,6.94,3.8,0,6.34-2.86,6.33-7.06"/><path class="cls-6" d="M29.16,349.1c-.19,4.44,3.46,6.95,6.91,7.16s7-3.45,7-7.12A7.38,7.38,0,0,0,36,342.08a6.91,6.91,0,0,0-6.81,7"/><path class="cls-6" d="M387.26,412.67a7,7,0,0,0,7,7,7.07,7.07,0,1,0-.15-14.13H394a7,7,0,0,0-6.73,7.2"/><path class="cls-6" d="M257.49,433.67c-.23-4.5-2.51-6.31-6.8-6.66-3.84-.32-7.18,3.23-7.17,7.11a7,7,0,0,0,7.2,6.79h.06c4,0,6.74-3,6.71-7.24"/><path class="cls-6" d="M222,349.12a7,7,0,0,0,6.84,7.16h0a7.48,7.48,0,0,0,7.09-7.14,7.14,7.14,0,0,0-7.15-7,6.65,6.65,0,0,0-6.79,6.52,2.94,2.94,0,0,0,0,.42"/><path class="cls-6" d="M181.87,412.7a7.08,7.08,0,0,0,7,6.93c3.53-.05,7-3.48,7-6.92a7,7,0,1,0-14,0"/><path class="cls-6" d="M262.16,412.61a7,7,0,0,0,7,7h0c2.86,0,7.06-2.82,6.93-7.22a7.61,7.61,0,0,0-7.1-7,7,7,0,0,0-6.87,7.13v0"/><path class="cls-6" d="M229.08,426.58A7.15,7.15,0,0,0,222,433.3c-.21,4.05,3.35,7.29,7.54,7.23s6.58-3.1,6.61-6.81c0-3.89-2.47-7.14-7.06-7.14"/><path class="cls-6" d="M372.31,419.41a7,7,0,1,0-6.92-7.07c0,.11,0,.22,0,.33a6.55,6.55,0,0,0,6.35,6.75h.57"/><path class="cls-6" d="M222,370.3a6.72,6.72,0,0,0,6.61,6.81H229c4.5,0,6.6-3.07,6.92-6.94.29-3.58-3.17-7-6.7-7A6.8,6.8,0,0,0,222,369.5c0,.26,0,.53,0,.8"/><path class="cls-6" d="M250.16,342.34c-3.66-.51-6.95,3.26-6.95,6.87a7.46,7.46,0,0,0,7.2,7.08,6.89,6.89,0,0,0,6.73-6.93c0-4.47-2.53-7-7-7"/><path class="cls-6" d="M96.19,433.72a6.46,6.46,0,0,0,6.07,6.83H103a6.84,6.84,0,0,0,6.84-6.86v-.25a6.59,6.59,0,0,0-6.28-6.87,5.77,5.77,0,0,0-.72,0c-4.08,0-6.65,2.8-6.64,7.14"/><path class="cls-6" d="M323.81,412.56c-.31,4.2,3.56,7.07,6.82,7,4.73-.17,6.69-2.49,7.05-7.07.28-3.69-3.22-7-6.92-7a6.88,6.88,0,0,0-6.95,6.83v.24"/><path class="cls-6" d="M50,392.2A6.6,6.6,0,0,0,56.42,399a5.61,5.61,0,0,0,.58,0c4,0,6.81-3,6.81-7.16a6.92,6.92,0,0,0-7-6.85h0c-3.63-.13-7.2,3.63-6.77,7.24"/><path class="cls-6" d="M71.82,392.22A6.66,6.66,0,0,0,78.36,399h.27a7.09,7.09,0,0,0,6.92-7.25v-.06A7,7,0,0,0,78.68,385c-4.24.15-6.87,2.83-6.86,7.25"/><path class="cls-6" d="M295.49,412.61c0-5-2.82-6.72-6.62-7.05a6.83,6.83,0,0,0-7.23,6.41c0,.25,0,.51,0,.76.27,3.69,2.29,6.8,7.22,6.69a6.5,6.5,0,0,0,6.64-6.34c0-.16,0-.31,0-.47"/><path class="cls-6" d="M36.18,405.47a7.07,7.07,0,1,0,.49,14.14c3.49-.18,6.85-3.63,6.76-7a7.38,7.38,0,0,0-7.25-7.19"/><path class="cls-6" d="M188.78,426.58a7,7,0,0,0-6.91,6.77c0,3.46,2.58,7.34,6.83,7.21a7,7,0,0,0,.08-14"/><path class="cls-6" d="M281.51,349.25c-.34,4.28,3.84,6.94,6.89,7a7.37,7.37,0,0,0,7.08-7.15,7.14,7.14,0,0,0-6.89-6.86,6.65,6.65,0,0,0-7.08,6.17,7.66,7.66,0,0,0,0,.83"/><path class="cls-6" d="M229.13,419.41c4,0,7.37-3.05,7.09-6.94s-2.73-6.75-7-7c-3.78-.2-7.29,3.53-7.12,7.46.16,3.38,3.43,6.77,7.06,6.45"/><path class="cls-6" d="M150,349a6.88,6.88,0,0,0-6.71-7,7.09,7.09,0,0,0-.7,14.16h.49A7.09,7.09,0,0,0,150,349"/><path class="cls-6" d="M85.44,349.15a6.63,6.63,0,0,0-6.24-7h-.67a7,7,0,0,0,0,14.09c4-.13,7.34-3.15,6.89-7.06"/><path class="cls-6" d="M109.11,329.65c-.18-4.59-3.17-7.49-7.47-7.24-3.55.21-6.65,3.83-6.48,7.54.16,3.41,3.61,6.48,7.17,6.38,4.07-.11,6.92-2.93,6.78-6.68"/><path class="cls-6" d="M323.45,434.17c-.05,3.68,2.57,6.8,7.25,6.75,3.79,0,6.51-3,6.53-7.42,0-3.82-3.45-6.39-7-6.52-3.91-.15-6.82,3-6.83,7.19"/><path class="cls-6" d="M301.94,433.68a6.91,6.91,0,0,0,7,6.86h.16a7.19,7.19,0,0,0,6.78-6.77,7,7,0,0,0-6.81-7.19h-.19a6.77,6.77,0,0,0-6.88,6.64c0,.15,0,.31,0,.46"/><path class="cls-6" d="M63.57,349.1c.55-3.4-3-7-6.56-7.05a6.88,6.88,0,0,0-7,6.74c0,.13,0,.25,0,.38a6.81,6.81,0,0,0,6.55,7.06h.39c3-.05,7.2-2.89,6.68-7.13"/><path class="cls-6" d="M426.69,434a7.23,7.23,0,0,0,7.27,6.89c3.49,0,6.64-3.31,6.69-7.08.05-3.26-3.08-6.82-6-6.8-5.06.05-8,2.6-8,7"/><path class="cls-6" d="M412.29,440.55a7.16,7.16,0,0,0,6.87-7c0-3.78-3-7-6.48-6.94-4.22,0-7.69,3.05-7.43,6.74.29,4.11,2.6,7.1,7,7.23"/><path class="cls-6" d="M386.9,434.12a6.65,6.65,0,0,0,6.53,6.77h.47a7.08,7.08,0,0,0,7-6.69c0-3.49-3.6-7.55-7.83-7.25-3,.22-6.13,3.64-6.11,7.18"/></g></g></g></svg>