<svg id="Capa_1" data-name="Capa 1" xmlns="http://www.w3.org/2000/svg" viewBox="0 0 438 370"><defs><style>.cls-1{opacity:0.21;}.cls-2{fill:#a62434;}</style></defs><title>employee_icon</title><path d="M69.72,347.28a20.56,20.56,0,0,1-10-2.47q-4.53-2.46-4.53-7.13V185L45.55,197.1a14.07,14.07,0,0,1-3.15,2.06,7,7,0,0,1-2.89.69,8.47,8.47,0,0,1-7.13-3.71,13.26,13.26,0,0,1-2.75-8.1,13,13,0,0,1,1.65-6.31,15.7,15.7,0,0,1,4.12-4.95L64,149.33a10.75,10.75,0,0,1,3.16-2.2,10.07,10.07,0,0,1,4.25-.82,16.8,16.8,0,0,1,8.79,2.47,7.86,7.86,0,0,1,4.12,7.14V337.68q0,4.67-4.53,7.13A20.55,20.55,0,0,1,69.72,347.28Z"/><path d="M176.25,348.93a78.15,78.15,0,0,1-31.3-6,47,47,0,0,1-22.11-19.49q-8.1-13.45-8.1-35.69v-79.9q0-22.25,8.1-35.69a47.19,47.19,0,0,1,22-19.5q13.86-6,31.44-6a79.34,79.34,0,0,1,31.43,6,47,47,0,0,1,22.24,19.5q8.1,13.45,8.1,35.69v79.9q0,22.23-8.1,35.69a47,47,0,0,1-22.1,19.49Q193.81,348.94,176.25,348.93Zm0-25.81q15.36,0,24-8.64t8.65-26.77v-79.9q0-18.12-8.65-26.77t-24-8.65q-15.39,0-23.89,8.65t-8.51,26.77v79.9q0,18.12,8.51,26.77T176.25,323.12Z"/><path d="M327,348.93a78.18,78.18,0,0,1-31.3-6,47,47,0,0,1-22.11-19.49q-8.1-13.45-8.1-35.69v-79.9q0-22.25,8.1-35.69a47.19,47.19,0,0,1,22-19.5q13.86-6,31.44-6a79.34,79.34,0,0,1,31.43,6,47,47,0,0,1,22.24,19.5q8.1,13.45,8.1,35.69v79.9q0,22.23-8.1,35.69a47,47,0,0,1-22.1,19.49Q344.56,348.94,327,348.93Zm0-25.81q15.38,0,24-8.64t8.65-26.77v-79.9q0-18.12-8.65-26.77t-24-8.65q-15.39,0-23.89,8.65t-8.51,26.77v79.9q0,18.12,8.51,26.77T327,323.12Z"/><g class="cls-1"><circle class="cls-2" cx="220.51" cy="76.02" r="70.02"/><circle class="cls-2" cx="362.15" cy="101.77" r="44.26"/><circle class="cls-2" cx="78.87" cy="101.77" r="44.26"/><path class="cls-2" d="M122.48,185.78c-17.43-14.27-33.21-12.38-53.35-12.38a54.55,54.55,0,0,0-54.65,54.31V315.6a23.65,23.65,0,0,0,23.67,23.58c56.36,0,49.57,1,49.57-2.43C87.72,274.47,80.34,228.8,122.48,185.78Z"/><path class="cls-2" d="M239.67,173.72c-35.19-2.94-65.77,0-92.16,21.81-44.14,35.36-35.65,83-35.65,141.22a28.24,28.24,0,0,0,28.19,28.19c169.87,0,176.63,5.48,186.71-16.83,3.3-7.55,2.4-5.15,2.4-77.32,0-57.32-49.64-97.07-89.49-97.07Z"/><path class="cls-2" d="M371.89,173.4c-20.26,0-35.95-1.87-53.35,12.38,41.82,42.7,34.76,85.26,34.76,151,0,3.47-5.64,2.43,48.72,2.43a24.5,24.5,0,0,0,24.52-24.42v-87A54.54,54.54,0,0,0,371.89,173.4Z"/></g></svg>