<svg id="Capa_1" data-name="Capa 1" xmlns="http://www.w3.org/2000/svg" viewBox="0 0 341 370"><defs><style>.cls-1{fill:#a62434;opacity:0.3;}</style></defs><title>location_icon</title><path d="M76.16,362.28q-15.93,0-27.45-4.4a55.09,55.09,0,0,1-18.95-11.53A45,45,0,0,1,18.92,330.7,44.31,44.31,0,0,1,15.48,314q0-7.41,3.16-9.88t10.57-2.47q8.79,0,11.81,2.61t3,8.37a19.58,19.58,0,0,0,2.06,8.65,24.56,24.56,0,0,0,5.9,7.69,28.15,28.15,0,0,0,10,5.49,45.72,45.72,0,0,0,14.42,2.06q17,0,25.12-8.1t8.1-25.95v-5.21q0-16.48-9.2-23.21t-24-6.72q-5.22,0-7.42-3.71a15.14,15.14,0,0,1-2.19-7.82A15.45,15.45,0,0,1,69,247.51q2.2-3.57,7.14-3.57a43.8,43.8,0,0,0,15-2.33,18.32,18.32,0,0,0,10-8.93q3.55-6.59,3.57-18.94,0-15.09-7-21.69t-20.45-6.59a42.08,42.08,0,0,0-13.73,1.92,22.77,22.77,0,0,0-8.78,5.22,19.14,19.14,0,0,0-4.67,7.14A24.18,24.18,0,0,0,48.71,208a12.49,12.49,0,0,1-2.89,8.52q-2.88,3.28-10.84,3.29a31.75,31.75,0,0,1-9.61-1.1,6.58,6.58,0,0,1-4.4-4.12,24.86,24.86,0,0,1-1.09-8.23,46.18,46.18,0,0,1,2.74-14.69,45,45,0,0,1,9.2-15.38q6.45-7.27,17.71-11.8t28-4.53q16.2,0,28.56,4.66A39.68,39.68,0,0,1,125.58,180q7.14,10.71,7.14,28.83,0,17.3-5.9,29.24t-16.06,16.61a46.17,46.17,0,0,1,20,14.83q7.95,10.15,8,27.73v5.21q0,21.69-8.37,34.87a48,48,0,0,1-22.65,19.08A81.83,81.83,0,0,1,76.16,362.28Z"/><path d="M224.15,362.28a78.32,78.32,0,0,1-31.3-6,47.08,47.08,0,0,1-22.11-19.5q-8.1-13.44-8.1-35.69v-79.9q0-22.23,8.1-35.69a47.11,47.11,0,0,1,22-19.49q13.86-6,31.44-6a79.17,79.17,0,0,1,31.43,6,46.89,46.89,0,0,1,22.24,19.49q8.1,13.46,8.1,35.69v79.9q0,22.24-8.1,35.69a47.11,47.11,0,0,1-22.1,19.5A79.1,79.1,0,0,1,224.15,362.28Zm0-25.81q15.36,0,24-8.65t8.65-26.77v-79.9q0-18.12-8.65-26.77t-24-8.65q-15.39,0-23.89,8.65t-8.51,26.77v79.9q0,18.12,8.51,26.77T224.15,336.47Z"/><path class="cls-1" d="M196.39,0A128.76,128.76,0,0,0,67.78,128.61C67.78,217.74,196.52,370,196.52,370S325,213.36,325,128.61A128.76,128.76,0,0,0,196.39,0Zm38.8,166.27a54.88,54.88,0,1,1,0-77.61A54.73,54.73,0,0,1,235.19,166.27Z"/></svg>