<svg id="Capa_1" data-name="Capa 1" xmlns="http://www.w3.org/2000/svg" viewBox="0 0 419 333.44"><defs><style>.cls-1{opacity:0.21;}.cls-2{fill:#a62434;}</style></defs><title>projects_icon</title><g class="cls-1"><path class="cls-2" d="M228.19,87.65,78.76,210.84a4,4,0,0,1-.13.78,3.34,3.34,0,0,0-.13.78V337.14a16.87,16.87,0,0,0,16.63,16.64h99.79V254h66.54v99.8h99.8a16.87,16.87,0,0,0,16.63-16.64V212.4a3.66,3.66,0,0,0-.26-1.56Z" transform="translate(-18.69 -20.34)"/><path class="cls-2" d="M434.8,182.77l-56.91-47.3v-106a8,8,0,0,0-8.32-8.32h-49.9a8,8,0,0,0-8.31,8.32V80.12L248,27.1a32.23,32.23,0,0,0-39.5,0L21.58,182.77a7.59,7.59,0,0,0-2.86,5.59,8.43,8.43,0,0,0,1.82,6.11L36.65,213.7a8.88,8.88,0,0,0,5.46,2.86,9.6,9.6,0,0,0,6.24-1.82l179.84-150L408,214.74a8,8,0,0,0,5.45,1.82h.79a8.91,8.91,0,0,0,5.45-2.86l16.12-19.23a8.43,8.43,0,0,0,1.81-6.11A7.59,7.59,0,0,0,434.8,182.77Z" transform="translate(-18.69 -20.34)"/></g><path d="M172.87,343.63a20.55,20.55,0,0,1-10-2.47q-4.53-2.48-4.53-7.14V181.36l-9.61,12.09a14,14,0,0,1-3.16,2.05,7,7,0,0,1-2.88.69,8.48,8.48,0,0,1-7.14-3.71,13.32,13.32,0,0,1-2.75-8.1,13,13,0,0,1,1.65-6.31,15.66,15.66,0,0,1,4.12-4.94l28.55-27.46a10.85,10.85,0,0,1,3.16-2.19,10.08,10.08,0,0,1,4.26-.83,16.83,16.83,0,0,1,8.78,2.47,7.86,7.86,0,0,1,4.12,7.14V334q0,4.67-4.53,7.14A20.55,20.55,0,0,1,172.87,343.63Z" transform="translate(-18.69 -20.34)"/><path d="M225,343.63a17,17,0,0,1-8.38-2.61q-4.53-2.61-4.53-7V307.39a36,36,0,0,1,6.45-20.73,87.5,87.5,0,0,1,16.75-18q10.3-8.51,21.83-16.61t21.69-16.47a96,96,0,0,0,16.75-17.43,32.92,32.92,0,0,0,6.59-19.77A30.94,30.94,0,0,0,299,184.93a27.29,27.29,0,0,0-9.75-11q-6.58-4.38-17-4.39-11.53,0-19.63,6.59t-8.1,20.59c0,2.75-1.33,5.26-4,7.55s-6.36,3.43-11.12,3.43q-6,0-9.61-3.43t-3.57-12.77q0-14.82,7.69-25.67A51.19,51.19,0,0,1,244.53,149a64.55,64.55,0,0,1,27.73-6,63.8,63.8,0,0,1,29.38,6.86,55.89,55.89,0,0,1,21.55,19.08q8.1,12.23,8.1,28.69a54,54,0,0,1-6.45,26.36,86.56,86.56,0,0,1-16.61,21.42,188.37,188.37,0,0,1-21.56,17.57q-11.39,8-21.41,15.1a101.07,101.07,0,0,0-16.47,14.28q-6.47,7.14-6.46,15.1v10.43h80.45q3.84,0,6.73,3.71a14.11,14.11,0,0,1,2.88,8.92,15.28,15.28,0,0,1-2.88,9.2q-2.89,4-6.73,4Z" transform="translate(-18.69 -20.34)"/></svg>